<svg width="14" height="12" viewBox="0 0 14 12" fill="none" xmlns="http://www.w3.org/2000/svg">
<path d="M12.6875 0.749878H1.31251C0.588747 0.749878 0 1.33862 0 2.06239V9.93738C0 10.6611 0.588747 11.2499 1.31251 11.2499H12.6875C13.4113 11.2499 14 10.6611 14 9.93738V2.06239C14 1.33862 13.4113 0.749878 12.6875 0.749878ZM12.6875 1.62487C12.7469 1.62487 12.8035 1.63721 12.8552 1.65874L7 6.73347L1.14479 1.65874C1.19649 1.63724 1.25304 1.62487 1.31248 1.62487H12.6875ZM12.6875 10.3749H1.31251C1.07112 10.3749 0.874996 10.1788 0.874996 9.93735V2.58319L6.71331 7.64306C6.79578 7.7144 6.89789 7.74988 7 7.74988C7.10211 7.74988 7.20422 7.71443 7.28669 7.64306L13.125 2.58319V9.93738C13.125 10.1788 12.9289 10.3749 12.6875 10.3749Z" fill="#EEB042"/>
</svg>
