<svg width="14" height="14" viewBox="0 0 14 14" fill="none" xmlns="http://www.w3.org/2000/svg">
<path d="M13.64 10.3259L11.8996 8.58552C11.4198 8.10572 10.639 8.10572 10.1592 8.58552L9.36813 9.3766C9.00462 9.74011 8.41312 9.74 8.04975 9.37674L4.62084 5.9449C4.25648 5.58054 4.25642 4.99082 4.62084 4.62641C4.74826 4.49899 5.11415 4.1331 5.41192 3.83532C5.88964 3.35763 5.89632 2.57929 5.41145 2.09448L3.67151 0.360009C3.19168 -0.119793 2.41094 -0.119793 1.93239 0.358751C1.5743 0.713728 1.4588 0.828244 1.29824 0.987412C-0.43208 2.7177 -0.43208 5.5331 1.29815 7.26334L6.73115 12.6992C8.46551 14.4336 11.2726 14.4337 13.0071 12.6992L13.64 12.0663C14.1199 11.5865 14.1199 10.8058 13.64 10.3259ZM2.51126 0.940135C2.6712 0.780201 2.9314 0.780174 3.09185 0.940572L4.83179 2.67505C4.99211 2.83536 4.99211 3.09483 4.83179 3.25517L4.5417 3.54523L2.22267 1.22621L2.51126 0.940135ZM7.31138 12.1191L1.87836 6.68324C0.539663 5.34454 0.466081 3.24248 1.65206 1.81588L3.96437 4.12818C3.35679 4.81694 3.38211 5.86648 4.04057 6.52494L7.46938 9.95662C7.4694 9.95665 7.46946 9.9567 7.46949 9.95673C8.12724 10.6145 9.17672 10.6415 9.86633 10.0331L12.1787 12.3454C10.7566 13.5294 8.6593 13.467 7.31138 12.1191ZM13.0599 11.4862L12.7698 11.7763L10.4493 9.45571L10.7393 9.16565C10.8993 9.00571 11.1595 9.00568 11.3195 9.16565L13.0599 10.9061C13.2199 11.066 13.2199 11.3263 13.0599 11.4862Z" fill="#EEB042"/>
</svg>
