<svg width="15" height="16" viewBox="0 0 15 16" fill="none" xmlns="http://www.w3.org/2000/svg">
<g clip-path="url(#clip0_20_2159)">
<path d="M10.9396 0.5H4.06036C1.82144 0.5 0 2.32144 0 4.56036V11.4397C0 13.6785 1.82144 15.5 4.06036 15.5H10.9397C13.1785 15.5 15 13.6785 15 11.4397V4.56036C15 2.32144 13.1785 0.5 10.9396 0.5V0.5ZM7.49999 12.1014C5.23841 12.1014 3.39855 10.2616 3.39855 7.99999C3.39855 5.73841 5.23841 3.89855 7.49999 3.89855C9.76156 3.89855 11.6014 5.73841 11.6014 7.99999C11.6014 10.2616 9.76156 12.1014 7.49999 12.1014V12.1014ZM11.6995 4.8658C11.0312 4.8658 10.4876 4.3222 10.4876 3.65387C10.4876 2.98554 11.0312 2.44183 11.6995 2.44183C12.3678 2.44183 12.9115 2.98554 12.9115 3.65387C12.9115 4.3222 12.3678 4.8658 11.6995 4.8658Z" fill="white"/>
<path d="M7.49991 4.77783C5.72333 4.77783 4.27783 6.22322 4.27783 7.99991C4.27783 9.77649 5.72333 11.222 7.49991 11.222C9.2766 11.222 10.722 9.77649 10.722 7.99991C10.722 6.22322 9.2766 4.77783 7.49991 4.77783Z" fill="white"/>
<path d="M11.6998 3.32129C11.5164 3.32129 11.3672 3.47052 11.3672 3.65385C11.3672 3.83719 11.5164 3.98642 11.6998 3.98642C11.8832 3.98642 12.0324 3.8373 12.0324 3.65385C12.0324 3.47041 11.8832 3.32129 11.6998 3.32129Z" fill="white"/>
</g>
<defs>
<clipPath id="clip0_20_2159">
<rect width="15" height="15" fill="white" transform="translate(0 0.5)"/>
</clipPath>
</defs>
</svg>
