<svg width="46" height="46" viewBox="0 0 46 46" fill="none" xmlns="http://www.w3.org/2000/svg">
<circle cx="23" cy="23" r="23" fill="#EEB042"/>
<path d="M13.2068 14.6929C11.9021 14.6929 10.8462 15.6835 10.8462 16.9076C10.8462 18.1316 11.9021 19.1223 13.2068 19.1223C14.5114 19.1223 15.5673 18.1316 15.5673 16.9076C15.5673 15.6898 14.5114 14.6992 13.2068 14.6929ZM13.2068 17.8603C12.6486 17.8603 12.1912 17.4313 12.1912 16.9076C12.1912 16.3839 12.6486 15.9548 13.2068 15.9548C13.7649 15.9548 14.2223 16.3839 14.2223 16.9076C14.2223 17.4376 13.7649 17.8603 13.2068 17.8603Z" fill="white"/>
<path d="M21.3718 14.6929C20.0671 14.6929 19.0112 15.6835 19.0112 16.9076C19.0112 18.1316 20.0671 19.1223 21.3718 19.1223C22.6765 19.1223 23.7324 18.1316 23.7324 16.9076C23.7324 15.6835 22.6765 14.6929 21.3718 14.6929ZM21.3718 17.8603C20.8136 17.8603 20.3563 17.4376 20.3563 16.9076C20.3563 16.3839 20.8136 15.9548 21.3718 15.9548C21.93 15.9548 22.3873 16.3839 22.3873 16.9076C22.3873 17.4313 21.93 17.8603 21.3718 17.8603Z" fill="white"/>
<path d="M24.613 26.8829C23.3083 26.8829 22.2524 27.8735 22.2524 29.0975C22.2524 30.3216 23.3083 31.3122 24.613 31.3122C25.9177 31.3122 26.9736 30.3216 26.9736 29.0975C26.9736 27.8735 25.9177 26.8829 24.613 26.8829ZM24.613 30.0503C24.0548 30.0503 23.5975 29.6212 23.5975 29.0975C23.5975 28.5739 24.0548 28.1448 24.613 28.1448C25.1712 28.1448 25.6285 28.5739 25.6285 29.0975C25.6285 29.6212 25.1712 30.044 24.613 30.0503Z" fill="white"/>
<path d="M36.5367 25.684C35.5616 24.725 34.2031 24.1824 32.7773 24.1887C31.661 24.1887 30.5647 24.5231 29.6703 25.1477C29.0919 25.5579 28.2916 25.5579 27.72 25.1477C27.5384 25.0215 27.3568 24.9143 27.1618 24.807L25.8907 19.3619C27.3366 17.0211 26.4893 14.0177 23.9942 12.6612C22.1918 11.6832 19.9389 11.7968 18.2643 12.9577C17.6859 13.3679 16.8856 13.3679 16.314 12.9577C13.9871 11.3551 10.7119 11.8346 9.0104 14.0177C7.30219 16.2008 7.81331 19.2736 10.1402 20.8699C10.9809 21.4504 11.9897 21.7785 13.0321 21.8163C13.0926 21.8163 13.1464 21.8163 13.2069 21.8163C14.3502 21.8163 15.4666 21.463 16.3745 20.8131C16.9125 20.4282 17.6658 20.4282 18.2038 20.8131C18.7553 21.2043 19.3807 21.4882 20.0465 21.6523L20.9275 25.6083C20.9006 25.6336 20.867 25.6588 20.8401 25.6904C18.8427 27.6526 18.9167 30.7695 21.0082 32.6435C21.9363 33.47 23.1535 33.9558 24.4313 34C24.4919 34 24.5457 34 24.6062 34C25.7495 34 26.8659 33.6467 27.7738 32.9968C28.3118 32.6119 29.065 32.6119 29.603 32.9968C31.9031 34.6373 35.185 34.2208 36.9335 32.063C38.4938 30.1386 38.3257 27.4318 36.5367 25.684ZM19.0175 19.8036C17.9953 19.0843 16.583 19.0843 15.5608 19.8099C14.8479 20.321 13.9736 20.5796 13.0792 20.5481C11.0818 20.485 9.40046 18.9139 9.32649 17.0463C9.24578 15.0336 10.9136 13.3426 13.059 13.2606C13.94 13.229 14.8075 13.4814 15.5137 13.9673C16.5696 14.7055 18.0088 14.7055 19.0646 13.9673C20.793 12.7685 23.2275 13.1155 24.4986 14.737C25.0232 15.4058 25.2922 16.2198 25.2518 17.0463C25.1778 18.9139 23.4965 20.485 21.5059 20.5481C20.6114 20.5796 19.7304 20.3146 19.0175 19.8036ZM25.6621 24.2833C25.3191 24.2202 24.9694 24.1824 24.6129 24.1824C23.7386 24.1824 22.8845 24.3843 22.1179 24.7755L21.4588 21.8163C21.4924 21.8163 21.5193 21.8163 21.5529 21.8163C22.7568 21.7785 23.9 21.3494 24.8012 20.5986L25.6621 24.2833ZM36.6578 29.2363C36.5838 31.1039 34.9025 32.675 32.9118 32.7381C32.0174 32.7696 31.1364 32.5046 30.4235 31.9936C29.4013 31.268 27.9823 31.268 26.96 31.9936C26.2472 32.5046 25.3729 32.7633 24.4784 32.7318C22.481 32.6687 20.7997 31.0976 20.7257 29.23C20.645 27.2173 22.3196 25.5263 24.465 25.4443C25.346 25.4127 26.2068 25.6651 26.9197 26.151C27.9755 26.8892 29.4147 26.8892 30.4706 26.151C32.199 24.9521 34.6335 25.2992 35.9046 26.9207C36.4291 27.5958 36.6914 28.4098 36.6578 29.2363Z" fill="white"/>
<path d="M32.7771 26.8829C31.4724 26.8829 30.4165 27.8735 30.4165 29.0975C30.4165 30.3216 31.4724 31.3122 32.7771 31.3122C34.0818 31.3122 35.1376 30.3216 35.1376 29.0975C35.1376 27.8735 34.0818 26.8829 32.7771 26.8829ZM32.7771 30.0503C32.2189 30.0503 31.7616 29.6212 31.7616 29.0975C31.7616 28.5739 32.2189 28.1448 32.7771 28.1448C33.3353 28.1448 33.7926 28.5739 33.7926 29.0975C33.7926 29.6212 33.3353 30.044 32.7771 30.0503Z" fill="white"/>
</svg>
