<svg width="46" height="46" viewBox="0 0 46 46" fill="none" xmlns="http://www.w3.org/2000/svg">
<circle cx="23" cy="23" r="23" fill="#EEB042"/>
<path d="M36.5557 23.0876L34.8483 22.3837L33.1472 19.198C32.8826 18.7065 32.3597 18.4031 31.7927 18.4031H29.0773C28.2456 18.4092 27.5715 19.0585 27.5778 19.8594V19.8655V23.9857H25.6247V22.5294C25.6184 22.1895 25.3349 21.9226 24.9821 21.9226H23.7535L22.5439 15.715C22.5124 15.5633 22.4305 15.4359 22.3045 15.3449L16.42 11.1094C16.3066 11.0366 16.1743 11.0002 16.042 11.0002H13.7046C13.4526 10.9941 13.2194 11.1397 13.1186 11.3643C13.0304 11.5645 13.0682 11.789 13.2131 11.9589V16.5585C13.2131 16.8922 13.4967 17.1653 13.8432 17.1653C14.133 17.1653 14.3472 17.3534 14.3472 17.6204C14.3472 17.8813 14.1267 18.0755 13.8369 18.0755C13.5786 18.0755 13.3328 17.8085 13.3328 17.5233C13.3328 17.1895 13.0493 16.9165 12.7028 16.9165C12.3563 16.9165 12.0728 17.1895 12.0728 17.5233C12.0728 18.482 12.8792 19.289 13.8369 19.289C14.8323 19.289 15.6073 18.5548 15.6073 17.6204C15.6136 16.9225 15.1599 16.2975 14.4732 16.0609V13.1422L17.5981 16.0366L16.4452 21.9226H15.141C14.7945 21.9226 14.5362 22.1956 14.5362 22.5294V23.9857H10.6237C10.2835 23.9796 10.0063 24.2405 10 24.5621C10 24.5682 10 24.5682 10 24.5743V29.7442C10 30.0779 10.2772 30.351 10.6237 30.3571H12.1547C12.2933 31.9408 13.7361 33.118 15.3867 32.9906C16.8421 32.8753 17.9951 31.7588 18.1211 30.3571H29.323C29.4616 31.9408 30.9043 33.118 32.555 32.9906C34.0104 32.8753 35.1633 31.7588 35.2893 30.3571H35.9572C36.7951 30.3571 37.4692 29.7017 37.4692 28.8947V24.4286C37.4692 23.8461 37.1101 23.3182 36.5557 23.0876ZM15.267 12.2138H15.8341L21.3531 16.1883L22.4746 21.9226H17.7304L18.9023 15.9456C18.9401 15.7453 18.8708 15.5451 18.7133 15.4055L15.267 12.2138ZM15.7963 23.1362H24.3646V23.9857H15.7963V23.1362ZM15.141 31.783C14.1834 31.783 13.4085 31.0367 13.4085 30.1143C13.4085 29.192 14.1834 28.4456 15.141 28.4456C16.0987 28.4456 16.8736 29.192 16.8736 30.1143C16.8736 31.0367 16.0987 31.777 15.141 31.783ZM27.5778 29.1435H17.9573C17.5414 28.0512 16.4389 27.232 15.141 27.232C13.8432 27.232 12.7406 28.0512 12.3248 29.1435H11.2601V25.1993H27.5778V29.1435ZM28.8378 19.8655C28.8315 19.7381 28.9324 19.6228 29.071 19.6167H29.0773H31.7927C31.8872 19.6107 31.9754 19.6592 32.0195 19.7381L33.3551 22.226H28.8378V19.8655ZM32.303 31.783C31.3454 31.783 30.5704 31.0367 30.5704 30.1143C30.5704 29.192 31.3454 28.4456 32.303 28.4456C33.2606 28.4456 34.0356 29.192 34.0356 30.1143C34.0356 31.0367 33.2606 31.777 32.303 31.783ZM36.2092 28.8947C36.2092 29.0282 36.0958 29.1435 35.9572 29.1435H35.1192C34.7034 28.0512 33.6009 27.232 32.303 27.232C31.0051 27.232 29.9026 28.0512 29.4868 29.1435H28.8378V23.4396H34.2624L36.058 24.192C36.1525 24.2345 36.2092 24.3255 36.2092 24.4286V28.8947Z" fill="white"/>
</svg>
