<svg width="46" height="46" viewBox="0 0 46 46" fill="none" xmlns="http://www.w3.org/2000/svg">
<circle cx="23" cy="23" r="23" fill="#EEB042"/>
<g clip-path="url(#clip0_20_2071)">
<path d="M28.8611 25.0562L26.3227 22.5456L30.335 18.5706L30.795 19.0263C31.1161 19.3446 31.6594 19.2466 31.8472 18.8373L34.1473 13.824C34.2595 13.5794 34.2068 13.2915 34.015 13.1015L33.0949 12.1901C32.9032 12.0002 32.6126 11.948 32.3658 12.0591L27.3056 14.3379C26.8926 14.5239 26.7939 15.0625 27.1149 15.3804L27.5748 15.8361L23.5626 19.8112L21.0286 17.2964C21.2876 15.8537 20.8208 14.3557 19.766 13.3106C18.4132 11.9704 16.3354 11.6206 14.5955 12.4402C14.4046 12.5301 14.2697 12.7064 14.2338 12.9127C14.1978 13.1191 14.2654 13.3299 14.4149 13.478L15.9033 14.9448V15.8685H14.9753L13.4948 14.3895C13.3454 14.2415 13.1326 14.1745 12.9243 14.2101C12.716 14.2457 12.5381 14.3794 12.4473 14.5685C11.4709 16.603 12.1354 18.9979 14.0274 20.263C14.995 20.9101 16.1877 21.151 17.3514 20.9446L18.3845 21.9724C17.9292 22.0025 17.4825 22.189 17.1352 22.5331C16.5324 23.1303 16.4077 24.0184 16.7535 24.7343L12.5721 28.8784C11.8093 29.634 11.8093 30.8571 12.5721 31.6128L14.4121 33.4358C15.1731 34.1897 16.4112 34.1897 17.1722 33.4358L21.3545 29.2909C22.0835 29.635 22.9779 29.5055 23.5754 28.9135C23.9227 28.5695 24.1109 28.127 24.1412 27.6758L25.1787 28.6994C24.9704 29.8523 25.2135 31.034 25.8666 31.9926C27.1439 33.8677 29.5614 34.5252 31.6143 33.5581C31.8052 33.4682 31.9402 33.292 31.9761 33.0855C32.012 32.8792 31.9445 32.6684 31.795 32.5202L30.3022 31.0535V30.177H31.2345L32.715 31.6088C32.8645 31.7568 33.0773 31.8237 33.2856 31.7881C33.4939 31.7526 33.6718 31.6189 33.7626 31.4297C34.5898 29.706 34.2368 27.6474 32.8841 26.3072C31.8292 25.262 30.3173 24.7997 28.8611 25.0562ZM32.4937 13.4174L32.7762 13.6973L31.0511 17.4572C30.9911 17.3978 28.8401 15.2666 28.6986 15.1265L32.4937 13.4174ZM18.0195 19.7835C17.8556 19.6211 17.6169 19.5574 17.3927 19.6163C16.4906 19.8533 15.5046 19.6956 14.7553 19.1946C13.6832 18.4777 13.1612 17.2553 13.3363 16.0555L14.2458 16.9258C14.3678 17.0467 14.5333 17.1146 14.7058 17.1146H16.5539C16.9131 17.1146 17.2044 16.826 17.2044 16.4701V14.6778C17.2044 14.5069 17.1359 14.3429 17.0139 14.2221L16.0978 13.3224C17.092 13.1819 18.1172 13.5001 18.8459 14.2221C19.6646 15.0332 19.9874 16.2265 19.6881 17.3362C19.6282 17.5585 19.6924 17.7956 19.8566 17.9583L22.6426 20.7227L22.117 21.2434C21.396 20.9015 20.4994 21.0231 19.8953 21.6216L19.8829 21.6339L18.0195 19.7835ZM16.2522 32.5243C15.9985 32.7757 15.5858 32.7757 15.3321 32.5243L13.4921 30.7013C13.2379 30.4495 13.2378 30.0417 13.4921 29.7898L17.5953 25.7233C17.9511 26.0759 20.0526 28.1579 20.3553 28.4578L16.2522 32.5243ZM22.6554 28.0021C22.4017 28.2534 21.989 28.2534 21.7353 28.0021L18.0552 24.356C17.8011 24.1042 17.801 23.6965 18.0553 23.4445C18.3095 23.1927 18.721 23.1926 18.9753 23.4445L22.6554 27.0906C22.909 27.3419 22.909 27.7508 22.6554 28.0021ZM23.5754 25.2675L23.1154 25.7233L20.3553 22.9887L20.8153 22.533C21.0696 22.2812 21.4811 22.2811 21.7353 22.5331L23.5754 24.356C23.829 24.6073 23.829 25.0163 23.5754 25.2675ZM24.0354 22.9888L23.1154 22.0773L28.4948 16.7476L29.4149 17.6591L24.0354 22.9888ZM32.8722 29.9414L31.9641 29.0417C31.8421 28.9208 31.6766 28.845 31.5041 28.845H29.9377C29.9375 28.845 29.9373 28.845 29.9371 28.845H29.6641C29.3047 28.845 29.0011 29.1336 29.0011 29.4895V29.7678C29.0011 29.7681 29.0011 29.7683 29.0011 29.7686V31.3205C29.0011 31.4914 29.0697 31.6553 29.1917 31.7762L30.1135 32.6773C28.9026 32.8508 27.6686 32.3336 26.9451 31.2714C26.4393 30.5291 26.2802 29.5523 26.5195 28.6584C26.5789 28.4364 26.5146 28.1999 26.3506 28.0375L24.4829 26.1914L24.4954 26.1791C25.0951 25.5849 25.2218 24.6973 24.8763 23.9787L25.4026 23.4572L28.193 26.2174C28.3572 26.38 28.5965 26.4437 28.8209 26.3843C29.9411 26.0878 31.1454 26.4076 31.9641 27.2187C32.6928 27.9407 33.0139 28.9563 32.8722 29.9414Z" fill="white"/>
<path d="M18.0553 28.0008C17.8012 27.7491 17.3893 27.7491 17.1353 28.0008L15.3321 29.7885C15.0781 30.0402 15.0781 30.4483 15.3321 30.7C15.5863 30.9518 15.9982 30.9517 16.2522 30.7L18.0553 28.9123C18.3093 28.6606 18.3093 28.2525 18.0553 28.0008Z" fill="white"/>
</g>
<defs>
<clipPath id="clip0_20_2071">
<rect width="22.2056" height="22" fill="white" transform="translate(12 12)"/>
</clipPath>
</defs>
</svg>
