<svg width="46" height="46" viewBox="0 0 46 46" fill="none" xmlns="http://www.w3.org/2000/svg">
<circle cx="23" cy="23" r="23" fill="#EEB042"/>
<path d="M18.7464 26.8246L21.7847 17.7095C21.8973 17.3718 21.7148 17.0068 21.3771 16.8942C21.0394 16.7817 20.6744 16.9642 20.5618 17.3018L17.5235 26.4169C17.4109 26.7546 17.5934 27.1196 17.9311 27.2322C17.9987 27.2547 18.0675 27.2654 18.135 27.2654C18.4048 27.2655 18.6563 27.0947 18.7464 26.8246Z" fill="white"/>
<path d="M23.3003 23.9968C24.3665 23.9968 25.2339 23.1294 25.2339 22.0632C25.2339 20.997 24.3665 20.1296 23.3003 20.1296C22.2341 20.1296 21.3667 20.997 21.3667 22.0632C21.3667 23.1294 22.2341 23.9968 23.3003 23.9968ZM23.3003 21.4187C23.6557 21.4187 23.9448 21.7078 23.9448 22.0632C23.9448 22.4186 23.6557 22.7078 23.3003 22.7078C22.9449 22.7078 22.6558 22.4186 22.6558 22.0632C22.6558 21.7078 22.9449 21.4187 23.3003 21.4187Z" fill="white"/>
<path d="M16.0078 20.1296C14.9416 20.1296 14.0742 20.997 14.0742 22.0632C14.0742 23.1294 14.9416 23.9968 16.0078 23.9968C17.074 23.9968 17.9414 23.1294 17.9414 22.0632C17.9414 20.997 17.074 20.1296 16.0078 20.1296ZM16.0078 22.7078C15.6524 22.7078 15.3633 22.4186 15.3633 22.0632C15.3633 21.7078 15.6524 21.4187 16.0078 21.4187C16.3632 21.4187 16.6523 21.7078 16.6523 22.0632C16.6523 22.4186 16.3632 22.7078 16.0078 22.7078Z" fill="white"/>
<path d="M31.8711 19.9922L29.6235 16.9954L29.7112 16.3817C29.7399 16.1808 29.6724 15.9782 29.5289 15.8348L28.1616 14.4675L29.5289 13.1002C29.7806 12.8486 29.7806 12.4405 29.5289 12.1888C29.2772 11.9371 28.8691 11.9371 28.6174 12.1888L27.2501 13.556L25.8829 12.1888C25.7394 12.0453 25.5368 11.978 25.336 12.0064L18.9554 12.9179C18.8173 12.9377 18.6894 13.0016 18.5908 13.1002L10.6911 21C9.76963 21.9214 9.76963 23.4207 10.6911 24.3422L17.3754 31.0266C17.5122 31.1633 17.6619 31.2792 17.8203 31.3754V31.6367C17.8203 32.9398 18.8805 34 20.1836 34H29.6367C30.9398 34 32 32.9398 32 31.6367V20.3789C32 20.2395 31.9547 20.1037 31.8711 19.9922ZM11.6026 23.4307C11.1837 23.0118 11.1837 22.3303 11.6026 21.9115L19.3504 14.1637L25.1992 13.3282L26.3386 14.4676L25.4271 15.3791L24.9713 14.9233C24.7197 14.6716 24.3115 14.6716 24.0598 14.9233C23.8081 15.1749 23.8081 15.5831 24.0598 15.8348L25.8829 17.6578C26.0087 17.7837 26.1737 17.8466 26.3386 17.8466C26.5035 17.8466 26.6685 17.7837 26.7943 17.6578C27.046 17.4061 27.046 16.998 26.7943 16.7463L26.3386 16.2905L27.25 15.3791L28.3895 16.5185L27.5539 22.3673L19.8061 30.1151C19.6032 30.318 19.3335 30.4297 19.0465 30.4297C18.7596 30.4297 18.4898 30.3179 18.2869 30.1151L11.6026 23.4307ZM30.7109 31.6367C30.7109 32.229 30.229 32.7109 29.6367 32.7109H20.1836C19.6179 32.7109 19.1534 32.2714 19.1126 31.716C19.6955 31.6999 20.2737 31.4705 20.7176 31.0266L28.6173 23.1268C28.7159 23.0282 28.7799 22.9003 28.7996 22.7622L29.3657 18.8001L30.7109 20.5937V31.6367Z" fill="white"/>
</svg>
