<svg width="20" height="12" viewBox="0 0 20 12" fill="none" xmlns="http://www.w3.org/2000/svg">
<path d="M16.5964 6.85675C16.2731 6.44841 16.3656 6.26675 16.5964 5.90175C16.6006 5.89758 19.2698 2.20925 19.5448 0.958415L19.5465 0.957581C19.6832 0.501748 19.5465 0.166748 18.8857 0.166748H16.6989C16.1422 0.166748 15.8856 0.454248 15.748 0.775915C15.748 0.775915 14.6347 3.44091 13.0596 5.16842C12.5513 5.66758 12.3163 5.82758 12.0388 5.82758C11.9021 5.82758 11.6896 5.66758 11.6896 5.21175V0.957581C11.6896 0.410915 11.5337 0.166748 11.0729 0.166748H7.63443C7.28525 0.166748 7.07775 0.421748 7.07775 0.659248C7.07775 1.17758 7.86527 1.29675 7.94694 2.75508V5.91925C7.94694 6.61258 7.8211 6.74008 7.54193 6.74008C6.79857 6.74008 4.99434 4.06425 3.92514 1.00175C3.7093 0.407581 3.49845 0.167581 2.9376 0.167581H0.750026C0.125838 0.167581 0 0.455081 0 0.776748C0 1.34508 0.743359 4.17091 3.45679 7.90425C5.26518 10.4526 7.81194 11.8334 10.1287 11.8334C11.5212 11.8334 11.6912 11.5267 11.6912 10.9992C11.6912 8.56425 11.5654 8.33425 12.2629 8.33425C12.5863 8.33425 13.143 8.49425 14.443 9.72342C15.9289 11.1809 16.1731 11.8334 17.0048 11.8334H19.1915C19.8149 11.8334 20.1307 11.5267 19.949 10.9217C19.5332 9.64925 16.7231 7.03175 16.5964 6.85675Z" fill="white"/>
</svg>
