<svg width="122" height="40" viewBox="0 0 122 40" fill="none" xmlns="http://www.w3.org/2000/svg">
<g clip-path="url(#clip0_20_1988)">
<path fill-rule="evenodd" clip-rule="evenodd" d="M43.9022 0.0290222V9.38532V9.42884C43.9022 14.5712 39.6955 18.7779 34.5532 18.7779C29.4108 18.7779 25.2041 14.5712 25.2041 9.42884V0.101552L29.9113 0.0797928V9.26202C29.9113 11.8368 32.0146 13.9402 34.5894 13.9402C37.157 13.9402 39.2603 11.8368 39.2603 9.26202V0.0507811L43.9022 0.0290222Z" fill="#EEB042"/>
<path fill-rule="evenodd" clip-rule="evenodd" d="M44.3735 0.0362549H48.9937V9.10244C48.9937 11.8295 51.2203 14.0562 53.9474 14.0562H63.0354V18.7053H53.4615C48.4642 18.7053 44.3735 14.6147 44.3735 9.6174V0.0362549Z" fill="#EEB042"/>
<path fill-rule="evenodd" clip-rule="evenodd" d="M63.3906 0H82.125V4.65639H75.2855V18.7706H70.4985V4.65639H63.3906V0Z" fill="#EEB042"/>
<path fill-rule="evenodd" clip-rule="evenodd" d="M82.6982 8.68178H94.4842C95.5576 8.68178 96.428 7.80417 96.428 6.73799C96.428 5.67181 95.5504 4.7942 94.4842 4.7942H82.6982V0.130554H94.8469C98.3645 0.130554 101.244 3.00997 101.244 6.52765C101.244 8.82684 100.018 10.8577 98.176 11.9819C99.8224 14.2883 99.9312 16.3336 99.9312 18.8069C98.3935 18.8069 96.8487 18.8069 95.3038 18.8069C95.3038 18.5893 95.3038 18.379 95.3038 18.1614C95.3038 15.282 92.9466 12.9248 90.0672 12.9248H82.6909V8.68178H82.6982Z" fill="#EEB042"/>
<path fill-rule="evenodd" clip-rule="evenodd" d="M120.58 0.0435181H110.97C105.842 0.0435181 101.643 4.24297 101.643 9.36355C101.643 14.4914 105.842 18.6908 110.97 18.6908H114.814V14.0707H111.195C108.663 14.0707 106.589 11.9964 106.589 9.4651C106.589 6.93382 108.663 4.85947 111.195 4.85947H115.532V18.6981H120.587V0.0435181H120.58Z" fill="#EEB042"/>
<path fill-rule="evenodd" clip-rule="evenodd" d="M0.942871 21.3962H11.641C15.942 21.3962 19.4596 24.9139 19.4596 29.2149C19.4596 33.5159 15.942 37.0335 11.641 37.0335H5.66454V39.9347H0.942871V32.5367H11.3799C13.2003 32.5367 14.6945 31.0426 14.6945 29.2149C14.6945 27.3944 13.2003 25.9003 11.3799 25.9003H0.942871V21.3962Z" fill="white"/>
<path fill-rule="evenodd" clip-rule="evenodd" d="M38.767 21.2076H29.1569C24.029 21.2076 19.8296 25.3998 19.8296 30.5349C19.8296 35.6627 24.0218 39.8622 29.1569 39.8622H32.9937V35.2348H29.3745C26.8432 35.2348 24.7688 33.1605 24.7688 30.6292C24.7688 28.0979 26.8432 26.0236 29.3745 26.0236H33.7117V39.8622H38.767V21.2076Z" fill="white"/>
<path fill-rule="evenodd" clip-rule="evenodd" d="M39.311 29.7588H51.0971C52.1705 29.7588 53.0409 28.8812 53.0409 27.8151C53.0409 26.7489 52.1633 25.8713 51.0971 25.8713H39.311V21.2149H51.4597C54.9774 21.2149 57.8641 24.0943 57.8641 27.612C57.8641 29.9112 56.6311 31.942 54.7961 33.0662C56.4425 35.3726 56.5513 37.418 56.5513 39.8912C55.0137 39.8912 53.4688 39.8912 51.9239 39.8912C51.9239 39.6736 51.9239 39.4633 51.9239 39.2457C51.9239 36.3663 49.5667 34.0091 46.6873 34.0091H39.311V29.7588Z" fill="white"/>
<path fill-rule="evenodd" clip-rule="evenodd" d="M77.8024 22.3681L77.8531 38.8685L65.5812 30.6872L77.8024 22.3681ZM58.0889 30.4624L71.8405 21.2802L82.5531 21.2947V39.9928L71.9275 39.942L58.0889 30.4624Z" fill="white"/>
<path fill-rule="evenodd" clip-rule="evenodd" d="M101.897 39.8404V30.4841V30.4334C101.897 25.291 97.6901 21.0771 92.5478 21.0771C87.4054 21.0771 83.1987 25.2838 83.1987 30.4334V39.7606L87.9059 39.7824V30.6074C87.9059 28.0326 90.0092 25.9365 92.584 25.9365C95.1516 25.9365 97.2549 28.0399 97.2549 30.6074V39.8187L101.897 39.8404Z" fill="white"/>
<path fill-rule="evenodd" clip-rule="evenodd" d="M121.139 39.8767H116.497V32.8558H110.738V28.214H121.139V39.8767ZM120.994 21.3309H111.623C106.531 21.3309 102.361 25.5013 102.361 30.5929C102.361 35.6845 106.531 39.8477 111.623 39.8477H116.199V35.1913H111.819C109.287 35.1913 107.213 33.1169 107.213 30.5857C107.213 28.0544 109.287 25.9873 111.819 25.9873H120.994V21.3309Z" fill="white"/>
<path fill-rule="evenodd" clip-rule="evenodd" d="M5.38906 17.0154C5.51236 17.2548 5.79523 17.3563 6.04908 17.3708C8.91399 17.5594 12.7508 17.5594 15.6085 17.3636C15.9058 17.3491 16.2685 17.1532 16.254 16.8123C16.283 16.6963 16.1742 16.5875 16.0581 16.5948C15.4997 16.5875 14.9412 16.5948 14.3827 16.5948L14.2304 17.117H12.0835V16.4787H9.42895V17.117H7.13702C7.13702 17.117 7.04273 16.6165 7.04273 16.602C6.53503 16.602 6.03457 16.5948 5.52687 16.6093C5.31653 16.6093 5.31653 16.8704 5.38906 17.0154ZM8.26848 14.8758C8.05815 14.8758 7.85506 15.0426 7.83331 15.253C7.8188 15.3908 7.82605 15.5286 7.82605 15.6664C9.73358 15.6736 11.6484 15.6736 13.5631 15.6736C13.5631 15.5286 13.5631 15.3908 13.5559 15.253C13.5341 15.0354 13.3238 14.8613 13.1062 14.8685C11.496 14.8105 9.87864 14.8105 8.26848 14.8758ZM13.8242 14.709C13.8242 15.0354 13.8242 15.369 13.8242 15.6954C14.506 15.6954 15.1878 15.6954 15.8696 15.6954C15.9929 15.7026 16.1307 15.6519 16.196 15.5431C16.2467 15.3835 16.1814 15.2167 16.0799 15.1006C15.9131 14.9048 15.6592 14.8105 15.4054 14.8033C14.8832 14.7598 14.3537 14.7235 13.8242 14.709ZM5.86776 14.8033C5.57764 14.8323 5.27302 14.9846 5.15697 15.2602C5.1207 15.3545 5.09169 15.4778 5.15697 15.5576C5.22225 15.6519 5.33829 15.6881 5.44709 15.6881C6.15788 15.6954 6.86866 15.6881 7.57945 15.6954C7.57945 15.3617 7.57945 15.0354 7.5722 14.7017C7.01372 14.7235 6.44074 14.7598 5.86776 14.8033ZM7.92759 11.0898C7.66649 11.097 7.42714 11.2421 7.28208 11.4524C6.91218 12.0109 6.57129 12.5984 6.38272 13.2511C9.26939 13.2366 12.1488 13.2511 15.0355 13.2439C14.8324 12.5984 14.4988 11.9964 14.1216 11.4307C13.9693 11.2203 13.7227 11.0825 13.4616 11.0825C11.6193 11.0027 9.76984 10.9955 7.92759 11.0898ZM7.94935 10.8722C9.78435 10.7996 11.6266 10.7996 13.4543 10.8722C13.7372 10.8939 13.9983 11.0535 14.1651 11.2711C14.564 11.8368 14.9339 12.4243 15.137 13.0916C15.1878 12.9538 15.1443 12.7362 15.3038 12.6782C15.5069 12.6637 15.71 12.6709 15.9131 12.6782C16.1089 12.6782 16.3047 12.845 16.3265 13.0481C16.312 13.1496 16.2322 13.2439 16.1234 13.2439C15.8623 13.2729 15.6085 13.2656 15.3474 13.3019C15.3691 13.3744 15.4271 13.4252 15.4852 13.4687C15.8043 13.7226 16.1234 13.9764 16.4426 14.2303C16.6021 15.3182 16.5659 16.4279 16.4426 17.5231C16.4353 17.6537 16.3265 17.7697 16.196 17.777C12.5332 17.9946 8.86322 17.9946 5.20049 17.777C5.07719 17.7697 4.97564 17.6537 4.96839 17.5231C4.80157 16.4279 4.91762 15.311 5.08444 14.223C5.43258 13.9257 5.77347 13.6138 6.12886 13.3164C5.86776 13.2439 5.58489 13.2802 5.31653 13.2366C5.22225 13.2221 5.16422 13.1278 5.14246 13.0481C5.15697 12.8377 5.36005 12.6782 5.55588 12.6782C5.75896 12.6782 5.96205 12.6709 6.16513 12.6782C6.28843 12.7072 6.26667 12.8595 6.30293 12.9538C6.53503 12.359 6.86141 11.8078 7.22406 11.2928C7.39813 11.068 7.66649 10.9012 7.94935 10.8722Z" fill="#EEB042"/>
<path fill-rule="evenodd" clip-rule="evenodd" d="M4.77979 16.9792C4.83056 17.1895 4.83056 17.4071 4.86682 17.6174C4.90309 17.7697 5.04814 17.893 5.20771 17.893C5.64289 17.9148 6.08531 17.9438 6.52049 17.9583C6.52774 18.1469 6.48423 18.4007 6.25939 18.437C5.94026 18.4515 5.62113 18.437 5.30925 18.4443C5.18595 18.437 5.04814 18.4588 4.93935 18.3935C4.83781 18.3282 4.78704 18.2122 4.78704 18.0961C4.78704 17.7262 4.79429 17.3491 4.77979 16.9792Z" fill="#EEB042"/>
<path fill-rule="evenodd" clip-rule="evenodd" d="M16.6747 16.5222C16.6095 17.0662 16.6675 17.6174 16.6385 18.1686C16.624 18.3282 16.4789 18.4515 16.3193 18.4442C15.9349 18.4442 15.5505 18.4515 15.1661 18.437C14.9413 18.4007 14.8905 18.1396 14.9195 17.951C15.3547 17.9365 15.7899 17.9075 16.2178 17.8858C16.3991 17.8785 16.5442 17.7044 16.5514 17.5304C16.5877 17.1967 16.595 16.8486 16.6747 16.5222Z" fill="#EEB042"/>
<path fill-rule="evenodd" clip-rule="evenodd" d="M9.3999 9.63916H18.4298L18.7417 10.1251V10.2847H9.3999V9.63916Z" fill="#EEB042"/>
<path fill-rule="evenodd" clip-rule="evenodd" d="M12.0834 9.63916H3.04625L2.73438 10.1251V10.2847H12.0834V9.63916Z" fill="#EEB042"/>
<path fill-rule="evenodd" clip-rule="evenodd" d="M16.9575 9.35631L18.7853 8.68904L20.9611 8.63101L21.5269 9.07344V9.74071L18.9231 9.84225L18.6112 9.35631H16.9575Z" fill="#EEB042"/>
<path fill-rule="evenodd" clip-rule="evenodd" d="M4.56936 9.35631L2.73436 8.68904L0.56573 8.63101L0 9.07344V9.74071L2.60381 9.84225L2.91568 9.35631H4.56936Z" fill="#EEB042"/>
<path fill-rule="evenodd" clip-rule="evenodd" d="M5.38881 7.69537C5.51211 7.93472 5.79498 8.03626 6.04883 8.05077C8.91375 8.23934 12.7506 8.2466 15.6082 8.05077C15.9056 8.03626 16.2682 7.84043 16.2537 7.49954C16.2827 7.3835 16.1739 7.2747 16.0579 7.28196C15.4994 7.2747 14.9409 7.28196 14.3825 7.28196L14.2302 7.80417H12.0833V7.15866H9.42871V7.79691H7.13678C7.13678 7.79691 7.04249 7.29646 7.04249 7.28196C6.53478 7.28196 6.03433 7.2747 5.52662 7.28921C5.31629 7.28196 5.31629 7.55031 5.38881 7.69537ZM8.26823 5.5485C8.0579 5.54125 7.85482 5.71532 7.83306 5.92565C7.81855 6.06346 7.8258 6.20852 7.8258 6.34633C9.73333 6.35358 11.6481 6.35358 13.5629 6.34633C13.5629 6.20852 13.5629 6.06346 13.5556 5.92565C13.5339 5.70807 13.3235 5.534 13.106 5.5485C11.4958 5.49048 9.87839 5.49048 8.26823 5.5485ZM13.824 5.38168C13.824 5.70807 13.824 6.0417 13.824 6.36808C14.5058 6.36808 15.1875 6.36808 15.8693 6.36808C15.9926 6.37534 16.1304 6.32457 16.1957 6.21577C16.2465 6.06346 16.1812 5.88939 16.0797 5.77334C15.9128 5.57751 15.659 5.49048 15.4051 5.47597C14.8829 5.43971 14.3535 5.40344 13.824 5.38168ZM5.86751 5.47597C5.58464 5.50498 5.28002 5.6573 5.16397 5.93291C5.12771 6.0272 5.0987 6.14324 5.16397 6.23028C5.22925 6.32457 5.3453 6.36083 5.45409 6.36083C6.16488 6.36808 6.87567 6.36083 7.58646 6.36808C7.58646 6.03445 7.58646 5.70807 7.5792 5.37443C7.01347 5.40344 6.44049 5.43245 5.86751 5.47597ZM7.92735 1.76246C7.66624 1.76972 7.42689 1.91478 7.28183 2.12511C6.90468 2.68359 6.57105 3.27833 6.38247 3.92384C9.26914 3.91659 12.1486 3.92384 15.0352 3.91659C14.8322 3.26382 14.4985 2.66908 14.1214 2.10335C13.9691 1.89302 13.7225 1.75521 13.4613 1.75521C11.6191 1.67543 9.76959 1.67543 7.92735 1.76246ZM7.9491 1.54488C9.7841 1.47235 11.6263 1.47235 13.4541 1.54488C13.737 1.56663 13.9981 1.7262 14.1649 1.94379C14.5638 2.50226 14.9337 3.09701 15.1368 3.75702C15.1875 3.62647 15.144 3.40888 15.3036 3.34361C15.5067 3.33635 15.7098 3.34361 15.9128 3.34361C16.1087 3.34361 16.3045 3.51042 16.3263 3.71351C16.3118 3.81505 16.232 3.90934 16.1232 3.90934C15.8621 3.93835 15.6082 3.93835 15.3471 3.96736C15.3689 4.03989 15.4269 4.09066 15.4849 4.14143C15.804 4.39528 16.1232 4.64914 16.4423 4.90299C16.6019 5.99093 16.5656 7.10063 16.4423 8.19583C16.4351 8.32638 16.3263 8.44243 16.1957 8.44243C12.533 8.66002 8.86298 8.66727 5.20024 8.44243C5.07694 8.44968 4.9754 8.32638 4.96814 8.20308C4.80133 7.10789 4.91012 5.99093 5.08419 4.90299C5.43233 4.60562 5.77322 4.29374 6.12862 3.99637C5.86026 3.92384 5.58464 3.96011 5.31629 3.91659C5.222 3.90208 5.16397 3.80779 5.14221 3.72801C5.15672 3.51768 5.3598 3.35811 5.55563 3.35086C5.75871 3.35086 5.9618 3.34361 6.16488 3.35086C6.28818 3.37987 6.26642 3.53218 6.30269 3.62647C6.53478 3.03173 6.86116 2.48051 7.22381 1.96555C7.39788 1.74071 7.66624 1.57389 7.9491 1.54488Z" fill="#EEB042"/>
<path fill-rule="evenodd" clip-rule="evenodd" d="M4.77979 7.65186C4.83056 7.86219 4.83056 8.07978 4.86682 8.29011C4.90309 8.44243 5.04814 8.56573 5.20771 8.56573C5.64289 8.58749 6.08531 8.6165 6.52049 8.631C6.52774 8.82683 6.48423 9.07343 6.25939 9.1097C5.94026 9.1242 5.62113 9.1097 5.30925 9.11695C5.18595 9.1097 5.04814 9.13871 4.93935 9.06618C4.83781 9.00816 4.78704 8.88486 4.78704 8.77606C4.78704 8.39891 4.79429 8.02901 4.77979 7.65186Z" fill="#EEB042"/>
<path fill-rule="evenodd" clip-rule="evenodd" d="M16.6747 7.20218C16.6095 7.74615 16.6675 8.29737 16.6385 8.84134C16.624 8.99366 16.4789 9.12421 16.3193 9.11696C15.9349 9.11696 15.5505 9.12421 15.1661 9.1097C14.9413 9.07344 14.8905 8.81233 14.9195 8.62376C15.3547 8.60925 15.7899 8.58024 16.2178 8.55848C16.3991 8.54397 16.5442 8.37716 16.5514 8.20309C16.5877 7.8767 16.595 7.52856 16.6747 7.20218Z" fill="#EEB042"/>
</g>
<defs>
<clipPath id="clip0_20_1988">
<rect width="121.139" height="40" fill="white"/>
</clipPath>
</defs>
</svg>
