<svg width="173" height="95" viewBox="0 0 173 95" fill="none" xmlns="http://www.w3.org/2000/svg">
<rect x="15" width="158" height="80" rx="4" fill="white"/>
<circle cx="15" cy="80" r="13" fill="#EEB042" stroke="white" stroke-width="4"/>
<path d="M9 79.0244H13.952V74H16.048V79.0244H21V80.9512H16.048V86H13.952V80.9512H9V79.0244Z" fill="white"/>
<path d="M44.5225 23H43.0137V18.8691L43.0283 18.1904L43.0527 17.4482C42.8021 17.6989 42.6279 17.8633 42.5303 17.9414L41.71 18.6006L40.9824 17.6924L43.2822 15.8613H44.5225V23ZM55.1123 15.8613V17.1113H52.1143V23H50.6006V15.8613H55.1123ZM63.1953 19.4209C63.1953 20.6025 62.9023 21.5107 62.3164 22.1455C61.7305 22.7803 60.8906 23.0977 59.7969 23.0977C58.7031 23.0977 57.8633 22.7803 57.2773 22.1455C56.6914 21.5107 56.3984 20.5993 56.3984 19.4111C56.3984 18.223 56.6914 17.3164 57.2773 16.6914C57.8665 16.0632 58.7096 15.749 59.8066 15.749C60.9036 15.749 61.7419 16.0648 62.3213 16.6963C62.904 17.3278 63.1953 18.236 63.1953 19.4209ZM57.9854 19.4209C57.9854 20.2184 58.1367 20.819 58.4395 21.2227C58.7422 21.6263 59.1947 21.8281 59.7969 21.8281C61.0046 21.8281 61.6084 21.0257 61.6084 19.4209C61.6084 17.8128 61.0078 17.0088 59.8066 17.0088C59.2044 17.0088 58.7503 17.2122 58.4443 17.6191C58.1383 18.0228 57.9854 18.6234 57.9854 19.4209ZM64.3252 21.7402H64.877C65.349 20.7962 65.7217 19.8538 65.9951 18.9131C66.2686 17.9691 66.472 16.9518 66.6055 15.8613H70.7656V21.7402H71.7178V25.0801H70.2578V23H65.7852V25.0801H64.3252V21.7402ZM67.8066 17.1211C67.7025 17.8665 67.5283 18.6559 67.2842 19.4893C67.0433 20.3226 66.7715 21.0729 66.4688 21.7402H69.2568V17.1211H67.8066ZM79.5 16.7598C78.8294 16.7598 78.3021 16.9974 77.918 17.4727C77.5339 17.9479 77.3418 18.6038 77.3418 19.4404C77.3418 20.3161 77.5257 20.9785 77.8936 21.4277C78.2646 21.877 78.8001 22.1016 79.5 22.1016C79.8027 22.1016 80.0957 22.0723 80.3789 22.0137C80.6621 21.9518 80.9567 21.8737 81.2627 21.7793V22.7803C80.7028 22.9919 80.068 23.0977 79.3584 23.0977C78.3135 23.0977 77.5111 22.7819 76.9512 22.1504C76.3913 21.5156 76.1113 20.609 76.1113 19.4307C76.1113 18.6885 76.2464 18.0391 76.5166 17.4824C76.79 16.9258 77.1839 16.4993 77.6982 16.2031C78.2126 15.9069 78.8164 15.7588 79.5098 15.7588C80.2389 15.7588 80.9128 15.9118 81.5312 16.2178L81.1113 17.1895C80.8704 17.0755 80.6149 16.9762 80.3447 16.8916C80.0778 16.8037 79.7962 16.7598 79.5 16.7598ZM87.3389 23H83.3008V15.8613H87.3389V16.8477H84.4678V18.791H87.1582V19.7676H84.4678V22.0088H87.3389V23ZM94.1133 18.0195C94.1133 18.765 93.8691 19.3363 93.3809 19.7334C92.8926 20.1305 92.1976 20.3291 91.2959 20.3291H90.5537V23H89.3867V15.8613H91.4424C92.3343 15.8613 93.0016 16.0436 93.4443 16.4082C93.8903 16.7728 94.1133 17.3099 94.1133 18.0195ZM90.5537 19.3477H91.1738C91.7728 19.3477 92.2122 19.2435 92.4922 19.0352C92.7721 18.8268 92.9121 18.5013 92.9121 18.0586C92.9121 17.6484 92.7868 17.3424 92.5361 17.1406C92.2855 16.9388 91.8949 16.8379 91.3643 16.8379H90.5537V19.3477ZM96.0391 15.8613H98.1582C99.1413 15.8613 99.8509 16.0046 100.287 16.291C100.727 16.5775 100.946 17.0299 100.946 17.6484C100.946 18.0651 100.839 18.4118 100.624 18.6885C100.409 18.9652 100.1 19.1393 99.6963 19.2109V19.2598C100.198 19.3542 100.565 19.5413 100.8 19.8213C101.037 20.098 101.156 20.474 101.156 20.9492C101.156 21.5905 100.932 22.0934 100.482 22.458C100.036 22.8193 99.4147 23 98.6172 23H96.0391V15.8613ZM97.2061 18.8105H98.3291C98.8174 18.8105 99.1738 18.734 99.3984 18.5811C99.623 18.4248 99.7354 18.1611 99.7354 17.79C99.7354 17.4548 99.6133 17.2122 99.3691 17.0625C99.1283 16.9128 98.7441 16.8379 98.2168 16.8379H97.2061V18.8105ZM97.2061 19.7578V22.0186H98.4463C98.9346 22.0186 99.3024 21.9258 99.5498 21.7402C99.8005 21.5514 99.9258 21.2552 99.9258 20.8516C99.9258 20.4805 99.7988 20.2054 99.5449 20.0264C99.291 19.8473 98.9053 19.7578 98.3877 19.7578H97.2061ZM103.141 15.8613H104.21V19.5723C104.21 19.9596 104.2 20.3519 104.181 20.749C104.161 21.1429 104.146 21.4098 104.137 21.5498H104.181L107.828 15.8613H109.19V23H108.116V19.3184C108.116 18.7552 108.147 18.0716 108.209 17.2676H108.17L104.508 23H103.141V15.8613ZM114.598 16.7598C113.927 16.7598 113.4 16.9974 113.016 17.4727C112.632 17.9479 112.439 18.6038 112.439 19.4404C112.439 20.3161 112.623 20.9785 112.991 21.4277C113.362 21.877 113.898 22.1016 114.598 22.1016C114.9 22.1016 115.193 22.0723 115.477 22.0137C115.76 21.9518 116.054 21.8737 116.36 21.7793V22.7803C115.8 22.9919 115.166 23.0977 114.456 23.0977C113.411 23.0977 112.609 22.7819 112.049 22.1504C111.489 21.5156 111.209 20.609 111.209 19.4307C111.209 18.6885 111.344 18.0391 111.614 17.4824C111.888 16.9258 112.282 16.4993 112.796 16.2031C113.31 15.9069 113.914 15.7588 114.607 15.7588C115.337 15.7588 116.01 15.9118 116.629 16.2178L116.209 17.1895C115.968 17.0755 115.713 16.9762 115.442 16.8916C115.175 16.8037 114.894 16.7598 114.598 16.7598ZM124.028 23H122.856V19.7822H119.565V23H118.398V15.8613H119.565V18.7812H122.856V15.8613H124.028V23ZM132.746 19.4209C132.746 20.583 132.455 21.4863 131.872 22.1309C131.293 22.7754 130.471 23.0977 129.406 23.0977C128.329 23.0977 127.5 22.7786 126.921 22.1406C126.345 21.4993 126.057 20.5895 126.057 19.4111C126.057 18.2327 126.346 17.3278 126.926 16.6963C127.508 16.0648 128.339 15.749 129.416 15.749C130.477 15.749 131.298 16.0697 131.877 16.7109C132.456 17.3522 132.746 18.2555 132.746 19.4209ZM127.297 19.4209C127.297 20.2998 127.474 20.9671 127.829 21.4229C128.184 21.8753 128.71 22.1016 129.406 22.1016C130.1 22.1016 130.622 21.877 130.974 21.4277C131.328 20.9785 131.506 20.3096 131.506 19.4209C131.506 18.5452 131.33 17.8812 130.979 17.4287C130.63 16.9762 130.109 16.75 129.416 16.75C128.716 16.75 128.187 16.9762 127.829 17.4287C127.474 17.8812 127.297 18.5452 127.297 19.4209ZM139.018 15.8613V16.8623H135.946V23H134.779V15.8613H139.018ZM147.018 19.4209C147.018 20.583 146.726 21.4863 146.144 22.1309C145.564 22.7754 144.742 23.0977 143.678 23.0977C142.6 23.0977 141.772 22.7786 141.192 22.1406C140.616 21.4993 140.328 20.5895 140.328 19.4111C140.328 18.2327 140.618 17.3278 141.197 16.6963C141.78 16.0648 142.61 15.749 143.688 15.749C144.749 15.749 145.569 16.0697 146.148 16.7109C146.728 17.3522 147.018 18.2555 147.018 19.4209ZM141.568 19.4209C141.568 20.2998 141.746 20.9671 142.101 21.4229C142.455 21.8753 142.981 22.1016 143.678 22.1016C144.371 22.1016 144.894 21.877 145.245 21.4277C145.6 20.9785 145.777 20.3096 145.777 19.4209C145.777 18.5452 145.602 17.8812 145.25 17.4287C144.902 16.9762 144.381 16.75 143.688 16.75C142.988 16.75 142.459 16.9762 142.101 17.4287C141.746 17.8812 141.568 18.5452 141.568 19.4209ZM55.4883 33.4209C55.4883 34.583 55.1969 35.4863 54.6143 36.1309C54.0348 36.7754 53.2129 37.0977 52.1484 37.0977C51.071 37.0977 50.2425 36.7786 49.6631 36.1406C49.0869 35.4993 48.7988 34.5895 48.7988 33.4111C48.7988 32.2327 49.0885 31.3278 49.668 30.6963C50.2507 30.0648 51.0807 29.749 52.1582 29.749C53.2194 29.749 54.0397 30.0697 54.6191 30.7109C55.1986 31.3522 55.4883 32.2555 55.4883 33.4209ZM50.0391 33.4209C50.0391 34.2998 50.2165 34.9671 50.5713 35.4229C50.9261 35.8753 51.4518 36.1016 52.1484 36.1016C52.8418 36.1016 53.3643 35.877 53.7158 35.4277C54.0706 34.9785 54.248 34.3096 54.248 33.4209C54.248 32.5452 54.0723 31.8812 53.7207 31.4287C53.3724 30.9762 52.8516 30.75 52.1582 30.75C51.4583 30.75 50.9294 30.9762 50.5713 31.4287C50.2165 31.8812 50.0391 32.5452 50.0391 33.4209ZM62.3506 34.8516C62.3506 36.2839 61.4326 37 59.5967 37H57.5215V29.8613H61.877V30.8623H58.6885V32.7617H59.5381C61.4131 32.7617 62.3506 33.4583 62.3506 34.8516ZM58.6885 36.0186H59.5283C60.0882 36.0186 60.4984 35.9274 60.7588 35.7451C61.0192 35.5596 61.1494 35.2617 61.1494 34.8516C61.1494 34.4577 61.0176 34.1745 60.7539 34.002C60.4935 33.8262 60.0378 33.7383 59.3867 33.7383H58.6885V36.0186ZM67.3086 30.7598C66.638 30.7598 66.1107 30.9974 65.7266 31.4727C65.3424 31.9479 65.1504 32.6038 65.1504 33.4404C65.1504 34.3161 65.3343 34.9785 65.7021 35.4277C66.0732 35.877 66.6087 36.1016 67.3086 36.1016C67.6113 36.1016 67.9043 36.0723 68.1875 36.0137C68.4707 35.9518 68.7653 35.8737 69.0713 35.7793V36.7803C68.5114 36.9919 67.8766 37.0977 67.167 37.0977C66.1221 37.0977 65.3197 36.7819 64.7598 36.1504C64.1999 35.5156 63.9199 34.609 63.9199 33.4307C63.9199 32.6885 64.055 32.0391 64.3252 31.4824C64.5986 30.9258 64.9925 30.4993 65.5068 30.2031C66.0212 29.9069 66.625 29.7588 67.3184 29.7588C68.0475 29.7588 68.7214 29.9118 69.3398 30.2178L68.9199 31.1895C68.679 31.0755 68.4235 30.9762 68.1533 30.8916C67.8864 30.8037 67.6048 30.7598 67.3086 30.7598ZM76.4658 37H75.2988V30.8623H73.2676C73.0104 32.9456 72.8037 34.3633 72.6475 35.1152C72.4945 35.8672 72.278 36.3913 71.998 36.6875C71.7181 36.9805 71.347 37.1221 70.8848 37.1123C70.6471 37.1123 70.4209 37.0716 70.2061 36.9902V36.0186C70.3916 36.0999 70.5723 36.1406 70.748 36.1406C70.9824 36.1406 71.1647 36.0007 71.2949 35.7207C71.4284 35.4375 71.5732 34.8141 71.7295 33.8506C71.889 32.887 72.0778 31.5573 72.2959 29.8613H76.4658V37ZM84.2852 29.8613L82.0342 34.9395C81.7575 35.5612 81.5036 36.012 81.2725 36.292C81.0413 36.5687 80.7728 36.7721 80.4668 36.9023C80.1641 37.0326 79.7962 37.0977 79.3633 37.0977C78.9857 37.0977 78.6357 37.0488 78.3135 36.9512V35.9014C78.6325 36.0283 78.9661 36.0918 79.3145 36.0918C79.6107 36.0918 79.8581 36.0202 80.0566 35.877C80.2585 35.7305 80.4408 35.4684 80.6035 35.0908L77.9717 29.8613H79.2314L80.9746 33.4404C81.1309 33.779 81.2269 34.0052 81.2627 34.1191H81.3115C81.3311 34.0345 81.3799 33.8994 81.458 33.7139L83.0645 29.8613H84.2852ZM87.5195 33.3086L84.9121 29.8613H86.1621L88.7012 33.3184V29.8613H89.8096V33.3184L92.3486 29.8613H93.5986L90.9912 33.3086L93.7109 37H92.4219L89.8096 33.3818V37H88.7012V33.3818L86.0889 37H84.79L87.5195 33.3086ZM95.168 29.8613H96.2373V33.5723C96.2373 33.9596 96.2275 34.3519 96.208 34.749C96.1885 35.1429 96.1738 35.4098 96.1641 35.5498H96.208L99.8555 29.8613H101.218V37H100.144V33.3184C100.144 32.7552 100.174 32.0716 100.236 31.2676H100.197L96.5352 37H95.168V29.8613ZM103.588 29.8613H105.707C106.69 29.8613 107.4 30.0046 107.836 30.291C108.275 30.5775 108.495 31.0299 108.495 31.6484C108.495 32.0651 108.388 32.4118 108.173 32.6885C107.958 32.9652 107.649 33.1393 107.245 33.2109V33.2598C107.746 33.3542 108.114 33.5413 108.349 33.8213C108.586 34.098 108.705 34.474 108.705 34.9492C108.705 35.5905 108.48 36.0934 108.031 36.458C107.585 36.8193 106.964 37 106.166 37H103.588V29.8613ZM104.755 32.8105H105.878C106.366 32.8105 106.723 32.734 106.947 32.5811C107.172 32.4248 107.284 32.1611 107.284 31.79C107.284 31.4548 107.162 31.2122 106.918 31.0625C106.677 30.9128 106.293 30.8379 105.766 30.8379H104.755V32.8105ZM104.755 33.7578V36.0186H105.995C106.483 36.0186 106.851 35.9258 107.099 35.7402C107.349 35.5514 107.475 35.2552 107.475 34.8516C107.475 34.4805 107.348 34.2054 107.094 34.0264C106.84 33.8473 106.454 33.7578 105.937 33.7578H104.755ZM115.118 37L114.405 35.0176H111.676L110.978 37H109.747L112.418 29.832H113.688L116.358 37H115.118ZM114.098 34.0117L113.429 32.0684C113.38 31.9382 113.312 31.7331 113.224 31.4531C113.139 31.1732 113.08 30.9681 113.048 30.8379C112.96 31.2383 112.831 31.6761 112.662 32.1514L112.018 34.0117H114.098ZM123.431 37H122.259V33.7822H118.968V37H117.801V29.8613H118.968V32.7812H122.259V29.8613H123.431V37ZM125.811 29.8613H126.88V33.5723C126.88 33.9596 126.87 34.3519 126.851 34.749C126.831 35.1429 126.816 35.4098 126.807 35.5498H126.851L130.498 29.8613H131.86V37H130.786V33.3184C130.786 32.7552 130.817 32.0716 130.879 31.2676H130.84L127.178 37H125.811V29.8613ZM136.486 34.1387L134.719 37H133.386L135.397 33.8701C134.486 33.5544 134.03 32.8903 134.03 31.8779C134.03 31.2236 134.257 30.724 134.709 30.3789C135.161 30.0339 135.827 29.8613 136.706 29.8613H138.85V37H137.678V34.1387H136.486ZM137.678 30.8379H136.75C136.258 30.8379 135.881 30.9258 135.617 31.1016C135.357 31.2741 135.227 31.5573 135.227 31.9512C135.227 32.3353 135.354 32.6348 135.607 32.8496C135.861 33.0645 136.255 33.1719 136.789 33.1719H137.678V30.8379Z" fill="black"/>
<path d="M37.8063 49.1504H41.8053C43.6275 49.1504 44.9488 49.4111 45.7691 49.9326C46.5953 50.4482 47.0084 51.2715 47.0084 52.4023C47.0084 53.1699 46.8268 53.7998 46.4635 54.292C46.1061 54.7842 45.6285 55.0801 45.0309 55.1797V55.2676C45.8453 55.4492 46.4313 55.7891 46.7887 56.2871C47.152 56.7852 47.3336 57.4473 47.3336 58.2734C47.3336 59.4453 46.9088 60.3594 46.0592 61.0156C45.2154 61.6719 44.067 62 42.6139 62H37.8063V49.1504ZM40.5309 54.2393H42.1129C42.8512 54.2393 43.3844 54.125 43.7125 53.8965C44.0465 53.668 44.2135 53.29 44.2135 52.7627C44.2135 52.2705 44.0318 51.9189 43.6686 51.708C43.3111 51.4912 42.7428 51.3828 41.9635 51.3828H40.5309V54.2393ZM40.5309 56.4014V59.75H42.3063C43.0563 59.75 43.61 59.6064 43.9674 59.3193C44.3248 59.0322 44.5035 58.5928 44.5035 58.001C44.5035 56.9346 43.7418 56.4014 42.2184 56.4014H40.5309ZM66.5447 62H63.8289V51.418H59.1004V62H56.3758V49.1504H66.5447V62ZM82.351 55.5576C82.351 57.6846 81.8236 59.3193 80.7689 60.4619C79.7143 61.6045 78.2025 62.1758 76.2338 62.1758C74.265 62.1758 72.7533 61.6045 71.6986 60.4619C70.6439 59.3193 70.1166 57.6787 70.1166 55.54C70.1166 53.4014 70.6439 51.7695 71.6986 50.6445C72.7592 49.5137 74.2768 48.9482 76.2514 48.9482C78.226 48.9482 79.7348 49.5166 80.7777 50.6533C81.8266 51.79 82.351 53.4248 82.351 55.5576ZM72.973 55.5576C72.973 56.9932 73.2455 58.0742 73.7904 58.8008C74.3354 59.5273 75.1498 59.8906 76.2338 59.8906C78.4076 59.8906 79.4945 58.4463 79.4945 55.5576C79.4945 52.6631 78.4135 51.2158 76.2514 51.2158C75.1674 51.2158 74.35 51.582 73.7992 52.3145C73.2484 53.041 72.973 54.1221 72.973 55.5576ZM84.3848 59.7324H85.3779C86.2275 58.0332 86.8984 56.3369 87.3906 54.6436C87.8828 52.9443 88.249 51.1133 88.4893 49.1504H95.9775V59.7324H97.6914V65.7441H95.0635V62H87.0127V65.7441H84.3848V59.7324ZM90.6514 51.418C90.4639 52.7598 90.1504 54.1807 89.7109 55.6807C89.2773 57.1807 88.7881 58.5312 88.2432 59.7324H93.2617V51.418H90.6514ZM108.444 62L107.512 58.9414H102.828L101.896 62H98.9605L103.496 49.0977H106.827L111.379 62H108.444ZM106.862 56.6562C106.001 53.8848 105.514 52.3174 105.403 51.9541C105.297 51.5908 105.221 51.3037 105.174 51.0928C104.981 51.8428 104.427 53.6973 103.513 56.6562H106.862ZM116.63 55.1973H117.527C118.364 55.1973 118.991 55.0332 119.407 54.7051C119.823 54.3711 120.031 53.8877 120.031 53.2549C120.031 52.6162 119.856 52.1445 119.504 51.8398C119.158 51.5352 118.613 51.3828 117.869 51.3828H116.63V55.1973ZM122.782 53.1582C122.782 54.541 122.349 55.5986 121.482 56.3311C120.62 57.0635 119.393 57.4297 117.799 57.4297H116.63V62H113.905V49.1504H118.01C119.569 49.1504 120.752 49.4873 121.561 50.1611C122.375 50.8291 122.782 51.8281 122.782 53.1582ZM137.771 55.5576C137.771 57.6846 137.244 59.3193 136.189 60.4619C135.135 61.6045 133.623 62.1758 131.654 62.1758C129.685 62.1758 128.174 61.6045 127.119 60.4619C126.064 59.3193 125.537 57.6787 125.537 55.54C125.537 53.4014 126.064 51.7695 127.119 50.6445C128.179 49.5137 129.697 48.9482 131.672 48.9482C133.646 48.9482 135.155 49.5166 136.198 50.6533C137.247 51.79 137.771 53.4248 137.771 55.5576ZM128.393 55.5576C128.393 56.9932 128.666 58.0742 129.211 58.8008C129.756 59.5273 130.57 59.8906 131.654 59.8906C133.828 59.8906 134.915 58.4463 134.915 55.5576C134.915 52.6631 133.834 51.2158 131.672 51.2158C130.588 51.2158 129.77 51.582 129.22 52.3145C128.669 53.041 128.393 54.1221 128.393 55.5576ZM151.811 62H148.717L144.059 55.4873V62H141.334V49.1504H144.059V55.373L148.664 49.1504H151.565L146.88 55.3203L151.811 62Z" fill="#EEB042"/>
</svg>
