<svg width="107" height="81" viewBox="0 0 107 81" fill="none" xmlns="http://www.w3.org/2000/svg">
<path d="M0 0H107V76.7547C107 78.9639 105.209 80.7547 103 80.7547H4C1.79086 80.7547 0 78.9639 0 76.7547V0Z" fill="white"/>
<path d="M17.7362 49.586V55.1823H16.9529V50.2563H14.2638V55.1823H13.4805V49.586H17.7362Z" fill="#24292C"/>
<path d="M23.6735 55.1823C23.582 54.94 23.4958 54.7032 23.4151 54.4717C23.3343 54.2348 23.2509 53.9952 23.1647 53.7529H20.629L20.1203 55.1823H19.3047C19.52 54.5901 19.7219 54.0437 19.9103 53.543C20.0987 53.0369 20.2818 52.5578 20.4594 52.1055C20.6425 51.6533 20.8228 51.2226 21.0005 50.8135C21.1782 50.3989 21.3639 49.9898 21.5577 49.586H22.2764C22.4702 49.9898 22.656 50.3989 22.8336 50.8135C23.0113 51.2226 23.189 51.6533 23.3666 52.1055C23.5497 52.5578 23.7354 53.0369 23.9238 53.543C24.1122 54.0437 24.3141 54.5901 24.5295 55.1823H23.6735ZM22.9386 53.1069C22.7663 52.6385 22.5941 52.1863 22.4218 51.7502C22.2549 51.3088 22.0799 50.8861 21.8969 50.4824C21.7084 50.8861 21.5281 51.3088 21.3558 51.7502C21.1889 52.1863 21.022 52.6385 20.8551 53.1069H22.9386Z" fill="#24292C"/>
<path d="M27.5827 49.5295C28.3687 49.5295 28.9717 49.6802 29.3916 49.9817C29.8169 50.2778 30.0296 50.7219 30.0296 51.3141C30.0296 51.6372 29.9704 51.9144 29.8519 52.1459C29.7389 52.372 29.572 52.5578 29.3512 52.7031C29.1359 52.8431 28.8721 52.9454 28.5598 53.01C28.2476 53.0746 27.895 53.1069 27.5019 53.1069H26.8801V55.1823H26.0968V49.6667C26.3175 49.6129 26.5625 49.5779 26.8317 49.5618C27.1063 49.5402 27.3566 49.5295 27.5827 49.5295ZM27.6473 50.2159C27.3135 50.2159 27.0578 50.224 26.8801 50.2401V52.4366H27.4696C27.7388 52.4366 27.9811 52.4205 28.1964 52.3882C28.4118 52.3505 28.5921 52.2913 28.7375 52.2105C28.8882 52.1244 29.004 52.0086 29.0847 51.8633C29.1655 51.7179 29.2059 51.5322 29.2059 51.3061C29.2059 51.0907 29.1628 50.9131 29.0767 50.7731C28.9959 50.6331 28.8829 50.5227 28.7375 50.442C28.5975 50.3559 28.4333 50.2966 28.2449 50.2643C28.0565 50.232 27.8573 50.2159 27.6473 50.2159Z" fill="#24292C"/>
<path d="M35.9602 49.586C35.7933 49.769 35.6049 49.9736 35.3949 50.1997C35.1849 50.4205 34.9642 50.6493 34.7327 50.8861C34.5066 51.1176 34.2805 51.3464 34.0544 51.5726C33.8283 51.7987 33.6156 52.0086 33.4164 52.2024C33.6479 52.364 33.8929 52.5632 34.1513 52.8C34.4097 53.0369 34.6627 53.2899 34.9104 53.5591C35.158 53.8283 35.3895 54.1029 35.6049 54.3828C35.8256 54.6628 36.0086 54.9293 36.154 55.1823H35.2334C35.0719 54.9293 34.8861 54.6762 34.6762 54.4232C34.4662 54.1648 34.2428 53.9198 34.0059 53.6883C33.7744 53.4515 33.5375 53.2334 33.2953 53.0342C33.0584 52.835 32.8269 52.6654 32.6008 52.5255V55.1823H31.8175V49.586H32.6008V52.0571C32.7892 51.8794 32.9965 51.6802 33.2226 51.4595C33.4487 51.2334 33.6721 51.0073 33.8929 50.7812C34.1136 50.5551 34.3209 50.3397 34.5147 50.1351C34.7139 49.9252 34.8808 49.7421 35.0154 49.586H35.9602Z" fill="#24292C"/>
<path d="M37.1937 52.3801C37.1937 51.901 37.2637 51.4783 37.4037 51.1123C37.549 50.7462 37.7428 50.442 37.9851 50.1997C38.2328 49.9521 38.5181 49.7663 38.8411 49.6425C39.1695 49.5187 39.5168 49.4568 39.8828 49.4568C40.2435 49.4568 40.5827 49.5187 40.9004 49.6425C41.2234 49.7663 41.506 49.9521 41.7483 50.1997C41.9905 50.442 42.1817 50.7462 42.3216 51.1123C42.467 51.4783 42.5397 51.901 42.5397 52.3801C42.5397 52.8593 42.467 53.2819 42.3216 53.648C42.1817 54.014 41.9905 54.3209 41.7483 54.5686C41.506 54.8108 41.2234 54.9939 40.9004 55.1177C40.5827 55.2415 40.2435 55.3034 39.8828 55.3034C39.5168 55.3034 39.1695 55.2415 38.8411 55.1177C38.5181 54.9939 38.2328 54.8108 37.9851 54.5686C37.7428 54.3209 37.549 54.014 37.4037 53.648C37.2637 53.2819 37.1937 52.8593 37.1937 52.3801ZM38.0174 52.3801C38.0174 52.7193 38.0605 53.0288 38.1466 53.3088C38.2328 53.5834 38.3539 53.8175 38.51 54.0114C38.6715 54.2052 38.8653 54.3559 39.0914 54.4636C39.3229 54.5659 39.5814 54.617 39.8667 54.617C40.152 54.617 40.4077 54.5659 40.6339 54.4636C40.86 54.3559 41.0511 54.2052 41.2072 54.0114C41.3687 53.8175 41.4926 53.5834 41.5787 53.3088C41.6648 53.0288 41.7079 52.7193 41.7079 52.3801C41.7079 52.0409 41.6648 51.7341 41.5787 51.4595C41.4926 51.1796 41.3687 50.9427 41.2072 50.7489C41.0511 50.5551 40.86 50.407 40.6339 50.3047C40.4077 50.197 40.152 50.1432 39.8667 50.1432C39.5814 50.1432 39.3229 50.197 39.0914 50.3047C38.8653 50.407 38.6715 50.5551 38.51 50.7489C38.3539 50.9427 38.2328 51.1796 38.1466 51.4595C38.0605 51.7341 38.0174 52.0409 38.0174 52.3801Z" fill="#24292C"/>
<path d="M46.0228 55.2307C45.9097 55.2307 45.7859 55.2281 45.6513 55.2227C45.5221 55.2173 45.3902 55.2092 45.2556 55.1984C45.1264 55.1877 44.9972 55.1742 44.868 55.1581C44.7388 55.1419 44.6203 55.1204 44.5127 55.0935V49.6667C44.6203 49.6398 44.7388 49.6183 44.868 49.6021C44.9972 49.586 45.1264 49.5725 45.2556 49.5618C45.3902 49.551 45.5221 49.5429 45.6513 49.5375C45.7805 49.5322 45.9017 49.5295 46.0147 49.5295C46.3377 49.5295 46.6392 49.5537 46.9192 49.6021C47.2045 49.6506 47.4495 49.734 47.654 49.8525C47.864 49.9655 48.0282 50.1163 48.1466 50.3047C48.2651 50.4931 48.3243 50.7246 48.3243 50.9992C48.3243 51.3061 48.2516 51.5591 48.1063 51.7583C47.9609 51.9521 47.7671 52.0975 47.5248 52.1944C47.8532 52.2913 48.1143 52.4447 48.3081 52.6547C48.502 52.8646 48.5989 53.1607 48.5989 53.543C48.5989 54.1029 48.3916 54.5255 47.9771 54.8108C47.5679 55.0908 46.9165 55.2307 46.0228 55.2307ZM45.2879 52.5739V54.5443C45.3471 54.5497 45.4171 54.5551 45.4979 54.5605C45.5679 54.5659 45.6486 54.5713 45.7401 54.5766C45.8371 54.5766 45.9474 54.5766 46.0712 54.5766C46.3027 54.5766 46.5208 54.5632 46.7254 54.5363C46.9353 54.504 47.1184 54.4501 47.2745 54.3747C47.4306 54.2994 47.5544 54.1944 47.646 54.0598C47.7429 53.9252 47.7913 53.7556 47.7913 53.5511C47.7913 53.368 47.7563 53.2146 47.6863 53.0907C47.6164 52.9615 47.5141 52.8593 47.3795 52.7839C47.2503 52.7085 47.0941 52.6547 46.9111 52.6224C46.728 52.5901 46.5235 52.5739 46.2974 52.5739H45.2879ZM45.2879 51.944H46.1116C46.3054 51.944 46.4885 51.9306 46.6608 51.9037C46.833 51.8767 46.9811 51.8283 47.1049 51.7583C47.2341 51.6883 47.3337 51.5968 47.4037 51.4837C47.4791 51.3707 47.5168 51.228 47.5168 51.0557C47.5168 50.8942 47.4791 50.7596 47.4037 50.652C47.3283 50.5389 47.2233 50.4501 47.0888 50.3855C46.9595 50.3155 46.8061 50.2643 46.6284 50.232C46.4508 50.1997 46.2624 50.1836 46.0632 50.1836C45.864 50.1836 45.7078 50.1863 45.5948 50.1917C45.4817 50.197 45.3794 50.2051 45.2879 50.2159V51.944Z" fill="#24292C"/>
<path d="M50.2832 52.3801C50.2832 51.901 50.3532 51.4783 50.4932 51.1123C50.6386 50.7462 50.8324 50.442 51.0746 50.1997C51.3223 49.9521 51.6076 49.7663 51.9306 49.6425C52.259 49.5187 52.6063 49.4568 52.9724 49.4568C53.3331 49.4568 53.6722 49.5187 53.9899 49.6425C54.3129 49.7663 54.5955 49.9521 54.8378 50.1997C55.0801 50.442 55.2712 50.7462 55.4112 51.1123C55.5565 51.4783 55.6292 51.901 55.6292 52.3801C55.6292 52.8593 55.5565 53.2819 55.4112 53.648C55.2712 54.014 55.0801 54.3209 54.8378 54.5686C54.5955 54.8108 54.3129 54.9939 53.9899 55.1177C53.6722 55.2415 53.3331 55.3034 52.9724 55.3034C52.6063 55.3034 52.259 55.2415 51.9306 55.1177C51.6076 54.9939 51.3223 54.8108 51.0746 54.5686C50.8324 54.3209 50.6386 54.014 50.4932 53.648C50.3532 53.2819 50.2832 52.8593 50.2832 52.3801ZM51.1069 52.3801C51.1069 52.7193 51.15 53.0288 51.2361 53.3088C51.3223 53.5834 51.4434 53.8175 51.5995 54.0114C51.761 54.2052 51.9549 54.3559 52.181 54.4636C52.4125 54.5659 52.6709 54.617 52.9562 54.617C53.2415 54.617 53.4973 54.5659 53.7234 54.4636C53.9495 54.3559 54.1406 54.2052 54.2967 54.0114C54.4583 53.8175 54.5821 53.5834 54.6682 53.3088C54.7544 53.0288 54.7974 52.7193 54.7974 52.3801C54.7974 52.0409 54.7544 51.7341 54.6682 51.4595C54.5821 51.1796 54.4583 50.9427 54.2967 50.7489C54.1406 50.5551 53.9495 50.407 53.7234 50.3047C53.4973 50.197 53.2415 50.1432 52.9562 50.1432C52.6709 50.1432 52.4125 50.197 52.181 50.3047C51.9549 50.407 51.761 50.5551 51.5995 50.7489C51.4434 50.9427 51.3223 51.1796 51.2361 51.4595C51.15 51.7341 51.1069 52.0409 51.1069 52.3801Z" fill="#24292C"/>
<path d="M58.1513 51.2011C58.1513 51.4272 58.1702 51.6264 58.2079 51.7987C58.2509 51.9656 58.3209 52.1055 58.4178 52.2186C58.5201 52.3263 58.6547 52.407 58.8216 52.4609C58.9939 52.5147 59.2092 52.5416 59.4676 52.5416C59.5699 52.5416 59.6722 52.5389 59.7745 52.5335C59.8822 52.5228 59.9845 52.512 60.0814 52.5012C60.1783 52.4905 60.2644 52.477 60.3398 52.4609C60.4152 52.4447 60.4771 52.4313 60.5255 52.4205V49.586H61.3088V55.1823H60.5255V53.0988C60.4232 53.1257 60.2644 53.1527 60.0491 53.1796C59.8391 53.2065 59.613 53.22 59.3707 53.22C58.9616 53.22 58.6278 53.1742 58.3694 53.0827C58.111 52.9858 57.9064 52.8512 57.7556 52.6789C57.6103 52.5012 57.5107 52.2886 57.4568 52.0409C57.403 51.7879 57.3761 51.508 57.3761 51.2011V49.586H58.1513V51.2011Z" fill="#24292C"/>
<path d="M67.0251 49.586H67.8085V55.1823H67.0251V52.5981H64.2876V55.1823H63.5042V49.586H64.2876V51.9198H67.0251V49.586Z" fill="#24292C"/>
<path d="M73.0743 53.4299C73.0743 53.2038 73.0339 53.0154 72.9532 52.8646C72.8724 52.7139 72.7567 52.5955 72.6059 52.5093C72.4552 52.4232 72.2748 52.364 72.0649 52.3317C71.8603 52.294 71.6342 52.2751 71.3865 52.2751C71.295 52.2751 71.1954 52.2751 71.0877 52.2751C70.9854 52.2751 70.8858 52.2805 70.7889 52.2913V54.5282C70.972 54.5443 71.1093 54.5524 71.2008 54.5524C71.2923 54.5524 71.4 54.5524 71.5238 54.5524C71.723 54.5524 71.9168 54.5363 72.1052 54.504C72.2937 54.4717 72.4579 54.4124 72.5979 54.3263C72.7432 54.2402 72.859 54.1271 72.9451 53.9871C73.0312 53.8418 73.0743 53.656 73.0743 53.4299ZM73.898 53.4299C73.898 53.7314 73.8415 53.9952 73.7284 54.2213C73.6154 54.4474 73.4538 54.6359 73.2439 54.7866C73.0339 54.9373 72.7782 55.0504 72.4767 55.1258C72.1752 55.2011 71.8361 55.2388 71.4592 55.2388C71.2331 55.2388 70.9908 55.2281 70.7324 55.2065C70.474 55.1904 70.2317 55.1554 70.0056 55.1015V49.586H70.7889V51.621C70.8858 51.6102 70.9881 51.6049 71.0958 51.6049C71.2089 51.5995 71.3139 51.5968 71.4108 51.5968C73.0689 51.5968 73.898 52.2078 73.898 53.4299ZM74.7459 49.586H75.5292V55.1823H74.7459V49.586Z" fill="#24292C"/>
<path d="M77.7294 55.1823V49.586H81.1453V50.2563H78.5127V51.9198H80.8546V52.5739H78.5127V54.512H81.3472V55.1823H77.7294Z" fill="#24292C"/>
<path d="M17.7362 59.0074V64.6037H16.9529V59.6776H14.2638V64.6037H13.4805V59.0074H17.7362Z" fill="#24292C"/>
<path d="M19.7084 61.8015C19.7084 61.3223 19.7784 60.8997 19.9184 60.5336C20.0637 60.1676 20.2576 59.8634 20.4998 59.6211C20.7475 59.3735 21.0328 59.1877 21.3558 59.0639C21.6842 58.9401 22.0315 58.8782 22.3976 58.8782C22.7583 58.8782 23.0974 58.9401 23.4151 59.0639C23.7381 59.1877 24.0207 59.3735 24.263 59.6211C24.5053 59.8634 24.6964 60.1676 24.8363 60.5336C24.9817 60.8997 25.0544 61.3223 25.0544 61.8015C25.0544 62.2806 24.9817 62.7033 24.8363 63.0693C24.6964 63.4354 24.5053 63.7423 24.263 63.9899C24.0207 64.2322 23.7381 64.4153 23.4151 64.5391C23.0974 64.6629 22.7583 64.7248 22.3976 64.7248C22.0315 64.7248 21.6842 64.6629 21.3558 64.5391C21.0328 64.4153 20.7475 64.2322 20.4998 63.9899C20.2576 63.7423 20.0637 63.4354 19.9184 63.0693C19.7784 62.7033 19.7084 62.2806 19.7084 61.8015ZM20.5321 61.8015C20.5321 62.1407 20.5752 62.4502 20.6613 62.7302C20.7475 63.0047 20.8686 63.2389 21.0247 63.4327C21.1862 63.6265 21.38 63.7773 21.6062 63.885C21.8377 63.9873 22.0961 64.0384 22.3814 64.0384C22.6667 64.0384 22.9225 63.9873 23.1486 63.885C23.3747 63.7773 23.5658 63.6265 23.7219 63.4327C23.8834 63.2389 24.0073 63.0047 24.0934 62.7302C24.1795 62.4502 24.2226 62.1407 24.2226 61.8015C24.2226 61.4623 24.1795 61.1555 24.0934 60.8809C24.0073 60.6009 23.8834 60.3641 23.7219 60.1702C23.5658 59.9764 23.3747 59.8284 23.1486 59.7261C22.9225 59.6184 22.6667 59.5646 22.3814 59.5646C22.0961 59.5646 21.8377 59.6184 21.6062 59.7261C21.38 59.8284 21.1862 59.9764 21.0247 60.1702C20.8686 60.3641 20.7475 60.6009 20.6613 60.8809C20.5752 61.1555 20.5321 61.4623 20.5321 61.8015Z" fill="#24292C"/>
<path d="M27.0316 64.6037V66.0976H26.2886V63.9334H26.8781C27.1527 63.6212 27.3626 63.2766 27.508 62.8998C27.6587 62.5175 27.7664 62.1164 27.831 61.6965C27.901 61.2712 27.9414 60.8324 27.9522 60.3802C27.9683 59.928 27.9791 59.4704 27.9845 59.0074H31.15V63.9334H31.8526V66.0976H31.1097V64.6037H27.0316ZM28.7516 59.6776C28.7355 60.033 28.7166 60.3964 28.6951 60.7678C28.6789 61.1339 28.6386 61.5 28.574 61.8661C28.5147 62.2268 28.4259 62.5821 28.3075 62.9321C28.189 63.282 28.0221 63.6158 27.8068 63.9334H30.3667V59.6776H28.7516Z" fill="#24292C"/>
<path d="M38.3667 62.8513C38.3667 63.4543 38.1487 63.9065 37.7126 64.208C37.2765 64.5095 36.6628 64.6602 35.8714 64.6602C35.6453 64.6602 35.3977 64.6494 35.1285 64.6279C34.8593 64.6118 34.6116 64.5768 34.3855 64.5229V59.6776H32.9319V59.0074H35.1689V61.0424C35.2765 61.0316 35.3842 61.0262 35.4919 61.0262C35.6049 61.0209 35.7153 61.0182 35.823 61.0182C37.5188 61.0182 38.3667 61.6292 38.3667 62.8513ZM37.543 62.8513C37.543 62.6252 37.5 62.4368 37.4138 62.286C37.3277 62.1353 37.2066 62.0168 37.0504 61.9307C36.8997 61.8446 36.7167 61.7853 36.5013 61.753C36.2913 61.7154 36.0572 61.6965 35.7987 61.6965C35.6964 61.6965 35.5915 61.6965 35.4838 61.6965C35.3815 61.6965 35.2765 61.7019 35.1689 61.7127V63.9496C35.2658 63.9603 35.3734 63.9684 35.4919 63.9738C35.6157 63.9738 35.7637 63.9738 35.936 63.9738C36.146 63.9738 36.3479 63.9576 36.5417 63.9253C36.7355 63.893 36.9051 63.8338 37.0504 63.7477C37.2012 63.6615 37.3196 63.5485 37.4058 63.4085C37.4973 63.2632 37.543 63.0774 37.543 62.8513Z" fill="#24292C"/>
<path d="M40.1642 64.6037V59.0074H43.5801V59.6776H40.9475V61.3412H43.2894V61.9953H40.9475V63.9334H43.782V64.6037H40.1642Z" fill="#24292C"/>
<path d="M48.0967 63.8284C48.0428 63.6992 47.9702 63.535 47.8786 63.3358C47.7925 63.1366 47.6983 62.9213 47.596 62.6898C47.4937 62.4583 47.3833 62.2214 47.2649 61.9792C47.1518 61.7315 47.0442 61.5 46.9419 61.2847C46.8396 61.0639 46.7427 60.8674 46.6512 60.6952C46.565 60.5229 46.495 60.391 46.4412 60.2995C46.382 60.9347 46.3335 61.6238 46.2958 62.3668C46.2582 63.1043 46.2259 63.85 46.1989 64.6037H45.4318C45.4533 64.1192 45.4775 63.6319 45.5044 63.142C45.5314 62.6467 45.561 62.1622 45.5933 61.6884C45.631 61.2093 45.6686 60.7436 45.7063 60.2914C45.7494 59.8392 45.7952 59.4112 45.8436 59.0074H46.53C46.6754 59.2443 46.8315 59.5242 46.9984 59.8472C47.1653 60.1702 47.3322 60.5094 47.4991 60.8647C47.666 61.2147 47.8275 61.5673 47.9836 61.9226C48.1397 62.2726 48.2824 62.5929 48.4116 62.8836C48.5408 62.5929 48.6835 62.2726 48.8396 61.9226C48.9957 61.5673 49.1572 61.2147 49.3241 60.8647C49.491 60.5094 49.6579 60.1702 49.8248 59.8472C49.9917 59.5242 50.1478 59.2443 50.2932 59.0074H50.9796C51.1627 60.8109 51.2999 62.6763 51.3915 64.6037H50.6243C50.5974 63.85 50.5651 63.1043 50.5274 62.3668C50.4897 61.6238 50.4412 60.9347 50.382 60.2995C50.3282 60.391 50.2555 60.5229 50.164 60.6952C50.0779 60.8674 49.9836 61.0639 49.8814 61.2847C49.7791 61.5 49.6687 61.7315 49.5503 61.9792C49.4372 62.2214 49.3295 62.4583 49.2272 62.6898C49.125 62.9213 49.028 63.1366 48.9365 63.3358C48.8504 63.535 48.7804 63.6992 48.7266 63.8284H48.0967Z" fill="#24292C"/>
<path d="M56.9482 59.0074H57.7315V64.6037H56.9482V62.0195H54.2106V64.6037H53.4272V59.0074H54.2106V61.3412H56.9482V59.0074Z" fill="#24292C"/>
<path d="M59.9286 64.6037V59.0074H60.6958V63.1501C60.8681 62.8648 61.078 62.5391 61.3257 62.173C61.5787 61.8069 61.8452 61.4354 62.1252 61.0585C62.4105 60.6763 62.6958 60.3075 62.9812 59.9522C63.2719 59.5915 63.5437 59.2766 63.7968 59.0074H64.4186V64.6037H63.6514V60.2349C63.5007 60.4071 63.3365 60.6063 63.1588 60.8324C62.9812 61.0585 62.7981 61.3008 62.6097 61.5592C62.4213 61.8123 62.2301 62.0761 62.0363 62.3506C61.8479 62.6252 61.6649 62.8971 61.4872 63.1662C61.3095 63.43 61.1426 63.6858 60.9865 63.9334C60.8358 64.1811 60.7012 64.4045 60.5827 64.6037H59.9286Z" fill="#24292C"/>
<path d="M70.7541 59.0074C70.5872 59.1904 70.3988 59.395 70.1888 59.6211C69.9789 59.8418 69.7581 60.0706 69.5266 60.3075C69.3005 60.539 69.0744 60.7678 68.8483 60.9939C68.6222 61.2201 68.4095 61.43 68.2103 61.6238C68.4418 61.7853 68.6868 61.9845 68.9452 62.2214C69.2036 62.4583 69.4567 62.7113 69.7043 62.9805C69.952 63.2497 70.1834 63.5243 70.3988 63.8042C70.6195 64.0842 70.8026 64.3506 70.9479 64.6037H70.0273C69.8658 64.3506 69.6801 64.0976 69.4701 63.8446C69.2602 63.5862 69.0367 63.3412 68.7998 63.1097C68.5683 62.8728 68.3315 62.6548 68.0892 62.4556C67.8523 62.2564 67.6208 62.0868 67.3947 61.9469V64.6037H66.6114V59.0074H67.3947V61.4785C67.5831 61.3008 67.7904 61.1016 68.0165 60.8809C68.2426 60.6548 68.4661 60.4287 68.6868 60.2025C68.9075 59.9764 69.1148 59.7611 69.3086 59.5565C69.5078 59.3465 69.6747 59.1635 69.8093 59.0074H70.7541Z" fill="#24292C"/>
<path d="M72.4977 64.6037V59.0074H73.2648V63.1501C73.4371 62.8648 73.6471 62.5391 73.8947 62.173C74.1478 61.8069 74.4142 61.4354 74.6942 61.0585C74.9795 60.6763 75.2649 60.3075 75.5502 59.9522C75.8409 59.5915 76.1128 59.2766 76.3658 59.0074H76.9876V64.6037H76.2205V60.2349C76.0697 60.4071 75.9055 60.6063 75.7279 60.8324C75.5502 61.0585 75.3671 61.3008 75.1787 61.5592C74.9903 61.8123 74.7992 62.0761 74.6054 62.3506C74.4169 62.6252 74.2339 62.8971 74.0562 63.1662C73.8786 63.43 73.7117 63.6858 73.5555 63.9334C73.4048 64.1811 73.2702 64.4045 73.1518 64.6037H72.4977Z" fill="#24292C"/>
<g clip-path="url(#clip0_20_2176)">
<path fill-rule="evenodd" clip-rule="evenodd" d="M42.3301 14.1516V20.448V20.4773C42.3301 23.9378 39.4991 26.7688 36.0386 26.7688C32.578 26.7688 29.7471 23.9378 29.7471 20.4773V14.2004L32.9148 14.1858V20.365C32.9148 22.0977 34.3302 23.5132 36.063 23.5132C37.7908 23.5132 39.2063 22.0977 39.2063 20.365V14.1663L42.3301 14.1516Z" fill="#EEB042"/>
<path fill-rule="evenodd" clip-rule="evenodd" d="M42.6475 14.1565H45.7566V20.2576C45.7566 22.0929 47.255 23.5913 49.0903 23.5913H55.2061V26.72H48.7632C45.4003 26.72 42.6475 23.9671 42.6475 20.6042V14.1565Z" fill="#EEB042"/>
<path fill-rule="evenodd" clip-rule="evenodd" d="M55.4453 14.1321H68.0527V17.2656H63.45V26.7639H60.2286V17.2656H55.4453V14.1321Z" fill="#EEB042"/>
<path fill-rule="evenodd" clip-rule="evenodd" d="M68.4385 19.9746H76.37C77.0923 19.9746 77.678 19.384 77.678 18.6665C77.678 17.949 77.0875 17.3584 76.37 17.3584H68.4385V14.22H76.614C78.9813 14.22 80.919 16.1577 80.919 18.5249C80.919 20.0722 80.0941 21.4388 78.8544 22.1954C79.9623 23.7475 80.0355 25.1239 80.0355 26.7883C79.0008 26.7883 77.9611 26.7883 76.9215 26.7883C76.9215 26.6419 76.9215 26.5003 76.9215 26.3539C76.9215 24.4162 75.3352 22.8299 73.3975 22.8299H68.4336V19.9746H68.4385Z" fill="#EEB042"/>
<path fill-rule="evenodd" clip-rule="evenodd" d="M93.9311 14.1614H87.4639C84.0131 14.1614 81.187 16.9874 81.187 20.4334C81.187 23.8842 84.0131 26.7102 87.4639 26.7102H90.0508V23.6011H87.6152C85.9117 23.6011 84.5158 22.2051 84.5158 20.5017C84.5158 18.7982 85.9117 17.4023 87.6152 17.4023H90.534V26.7151H93.936V14.1614H93.9311Z" fill="#EEB042"/>
<path fill-rule="evenodd" clip-rule="evenodd" d="M13.4204 28.5308H20.6198C23.5141 28.5308 25.8814 30.898 25.8814 33.7924C25.8814 36.6868 23.5141 39.054 20.6198 39.054H16.5979V41.0064H13.4204V36.0278H20.444C21.6692 36.0278 22.6746 35.0224 22.6746 33.7924C22.6746 32.5673 21.6692 31.5618 20.444 31.5618H13.4204V28.5308Z" fill="#24292C"/>
<path fill-rule="evenodd" clip-rule="evenodd" d="M38.8744 28.4038H32.4072C28.9564 28.4038 26.1304 31.225 26.1304 34.6807C26.1304 38.1315 28.9515 40.9575 32.4072 40.9575H34.9892V37.8435H32.5537C30.8502 37.8435 29.4543 36.4476 29.4543 34.7441C29.4543 33.0407 30.8502 31.6447 32.5537 31.6447H35.4724V40.9575H38.8744V28.4038Z" fill="#24292C"/>
<path fill-rule="evenodd" clip-rule="evenodd" d="M39.2407 34.1584H47.1722C47.8946 34.1584 48.4803 33.5678 48.4803 32.8503C48.4803 32.1328 47.8897 31.5422 47.1722 31.5422H39.2407V28.4087H47.4163C49.7835 28.4087 51.7261 30.3464 51.7261 32.7137C51.7261 34.2609 50.8963 35.6276 49.6615 36.3841C50.7694 37.9362 50.8427 39.3127 50.8427 40.977C49.8079 40.977 48.7683 40.977 47.7286 40.977C47.7286 40.8306 47.7286 40.6891 47.7286 40.5426C47.7286 38.6049 46.1423 37.0186 44.2046 37.0186H39.2407V34.1584Z" fill="#24292C"/>
<path fill-rule="evenodd" clip-rule="evenodd" d="M65.1438 29.1848L65.1779 40.2889L56.9194 34.7832L65.1438 29.1848ZM51.8774 34.6319L61.1317 28.4526L68.3408 28.4624V41.0454L61.1902 41.0112L51.8774 34.6319Z" fill="#24292C"/>
<path fill-rule="evenodd" clip-rule="evenodd" d="M81.3579 40.9428V34.6465V34.6123C81.3579 31.1517 78.527 28.3159 75.0664 28.3159C71.6058 28.3159 68.7749 31.1468 68.7749 34.6123V40.8892L71.9426 40.9038V34.7294C71.9426 32.9967 73.3581 31.5861 75.0908 31.5861C76.8186 31.5861 78.2341 33.0016 78.2341 34.7294V40.9282L81.3579 40.9428Z" fill="#24292C"/>
<path fill-rule="evenodd" clip-rule="evenodd" d="M94.3071 40.9673H91.1833V36.2426H87.3079V33.1188H94.3071V40.9673ZM94.2095 28.4868H87.9033C84.4769 28.4868 81.6704 31.2933 81.6704 34.7197C81.6704 38.1461 84.4769 40.9478 87.9033 40.9478H90.9832V37.8142H88.0351C86.3317 37.8142 84.9357 36.4183 84.9357 34.7149C84.9357 33.0114 86.3317 31.6204 88.0351 31.6204H94.2095V28.4868Z" fill="#24292C"/>
<path fill-rule="evenodd" clip-rule="evenodd" d="M16.4124 25.5826C16.4954 25.7437 16.6858 25.812 16.8566 25.8218C18.7846 25.9487 21.3666 25.9487 23.2896 25.8169C23.4898 25.8071 23.7338 25.6753 23.724 25.4459C23.7436 25.3678 23.6704 25.2946 23.5923 25.2995C23.2164 25.2946 22.8406 25.2995 22.4648 25.2995L22.3623 25.6509H20.9175V25.2214H19.1311V25.6509H17.5887C17.5887 25.6509 17.5253 25.3142 17.5253 25.3044C17.1836 25.3044 16.8468 25.2995 16.5052 25.3093C16.3636 25.3093 16.3636 25.485 16.4124 25.5826ZM18.3502 24.1427C18.2086 24.1427 18.0719 24.255 18.0573 24.3965C18.0475 24.4893 18.0524 24.582 18.0524 24.6748C19.3361 24.6796 20.6247 24.6796 21.9132 24.6796C21.9132 24.582 21.9132 24.4893 21.9083 24.3965C21.8937 24.2501 21.7522 24.133 21.6057 24.1379C20.5222 24.0988 19.4337 24.0988 18.3502 24.1427ZM22.0889 24.0305C22.0889 24.2501 22.0889 24.4746 22.0889 24.6943C22.5477 24.6943 23.0065 24.6943 23.4654 24.6943C23.5483 24.6992 23.6411 24.665 23.685 24.5918C23.7192 24.4844 23.6752 24.3721 23.6069 24.294C23.4946 24.1623 23.3238 24.0988 23.153 24.0939C22.8016 24.0646 22.4452 24.0402 22.0889 24.0305ZM16.7346 24.0939C16.5393 24.1135 16.3343 24.216 16.2562 24.4014C16.2318 24.4649 16.2123 24.5479 16.2562 24.6015C16.3002 24.665 16.3783 24.6894 16.4515 24.6894C16.9298 24.6943 17.4081 24.6894 17.8865 24.6943C17.8865 24.4698 17.8865 24.2501 17.8816 24.0256C17.5058 24.0402 17.1202 24.0646 16.7346 24.0939ZM18.1208 21.5949C17.945 21.5998 17.784 21.6974 17.6864 21.8389C17.4374 22.2148 17.208 22.6101 17.0811 23.0494C19.0237 23.0397 20.9614 23.0494 22.904 23.0445C22.7674 22.6101 22.5429 22.205 22.2891 21.8243C22.1866 21.6828 22.0206 21.59 21.8449 21.59C20.6051 21.5363 19.3605 21.5314 18.1208 21.5949ZM18.1354 21.4485C19.3703 21.3997 20.61 21.3997 21.84 21.4485C22.0304 21.4631 22.2061 21.5705 22.3183 21.7169C22.5868 22.0976 22.8357 22.493 22.9724 22.942C23.0065 22.8493 22.9773 22.7029 23.0846 22.6638C23.2213 22.6541 23.358 22.6589 23.4946 22.6638C23.6264 22.6638 23.7582 22.7761 23.7729 22.9127C23.7631 22.9811 23.7094 23.0445 23.6362 23.0445C23.4605 23.0641 23.2896 23.0592 23.1139 23.0836C23.1286 23.1324 23.1676 23.1666 23.2067 23.1958C23.4214 23.3667 23.6362 23.5375 23.8509 23.7083C23.9583 24.4405 23.9339 25.1873 23.8509 25.9243C23.8461 26.0121 23.7729 26.0902 23.685 26.0951C21.2201 26.2415 18.7504 26.2415 16.2855 26.0951C16.2026 26.0902 16.1342 26.0121 16.1293 25.9243C16.0171 25.1873 16.0952 24.4356 16.2074 23.7035C16.4417 23.5033 16.6711 23.2935 16.9103 23.0933C16.7346 23.0445 16.5442 23.0689 16.3636 23.0396C16.3002 23.0299 16.2611 22.9664 16.2465 22.9127C16.2562 22.7712 16.3929 22.6638 16.5247 22.6638C16.6614 22.6638 16.798 22.6589 16.9347 22.6638C17.0177 22.6833 17.003 22.7858 17.0274 22.8493C17.1836 22.4491 17.4033 22.0781 17.6473 21.7316C17.7644 21.5803 17.945 21.468 18.1354 21.4485Z" fill="#EEB042"/>
<path fill-rule="evenodd" clip-rule="evenodd" d="M16.0024 25.5583C16.0366 25.6999 16.0366 25.8463 16.061 25.9879C16.0854 26.0904 16.183 26.1733 16.2904 26.1733C16.5833 26.188 16.881 26.2075 17.1739 26.2173C17.1787 26.3442 17.1495 26.515 16.9981 26.5394C16.7834 26.5492 16.5686 26.5394 16.3587 26.5443C16.2758 26.5394 16.183 26.5541 16.1098 26.5101C16.0415 26.4662 16.0073 26.3881 16.0073 26.31C16.0073 26.0611 16.0122 25.8073 16.0024 25.5583Z" fill="#EEB042"/>
<path fill-rule="evenodd" clip-rule="evenodd" d="M24.0075 25.2507C23.9635 25.6168 24.0026 25.9877 23.9831 26.3587C23.9733 26.4661 23.8757 26.5491 23.7683 26.5442C23.5096 26.5442 23.2509 26.5491 22.9922 26.5393C22.8409 26.5149 22.8068 26.3392 22.8263 26.2123C23.1191 26.2025 23.412 26.183 23.7 26.1683C23.822 26.1635 23.9196 26.0463 23.9245 25.9292C23.9489 25.7047 23.9538 25.4704 24.0075 25.2507Z" fill="#EEB042"/>
<path fill-rule="evenodd" clip-rule="evenodd" d="M19.1118 20.6189H25.1886L25.3984 20.9459V21.0533H19.1118V20.6189Z" fill="#EEB042"/>
<path fill-rule="evenodd" clip-rule="evenodd" d="M20.918 20.6189H14.8363L14.6265 20.9459V21.0533H20.918V20.6189Z" fill="#EEB042"/>
<path fill-rule="evenodd" clip-rule="evenodd" d="M24.1978 20.4285L25.4277 19.9795L26.892 19.9404L27.2727 20.2382V20.6872L25.5205 20.7555L25.3106 20.4285H24.1978Z" fill="#EEB042"/>
<path fill-rule="evenodd" clip-rule="evenodd" d="M15.8611 20.4285L14.6262 19.9795L13.1668 19.9404L12.7861 20.2382V20.6872L14.5384 20.7555L14.7483 20.4285H15.8611Z" fill="#EEB042"/>
<path fill-rule="evenodd" clip-rule="evenodd" d="M16.4126 19.3106C16.4956 19.4717 16.6859 19.54 16.8568 19.5498C18.7847 19.6767 21.3667 19.6816 23.2898 19.5498C23.4899 19.54 23.734 19.4082 23.7242 19.1788C23.7437 19.1008 23.6705 19.0275 23.5924 19.0324C23.2166 19.0275 22.8408 19.0324 22.4649 19.0324L22.3624 19.3838H20.9177V18.9494H19.1313V19.379H17.5889C17.5889 19.379 17.5255 19.0422 17.5255 19.0324C17.1838 19.0324 16.847 19.0275 16.5053 19.0373C16.3638 19.0324 16.3638 19.213 16.4126 19.3106ZM18.3503 17.8659C18.2088 17.861 18.0721 17.9781 18.0575 18.1197C18.0477 18.2124 18.0526 18.31 18.0526 18.4028C19.3363 18.4077 20.6248 18.4077 21.9134 18.4028C21.9134 18.31 21.9134 18.2124 21.9085 18.1197C21.8939 17.9733 21.7523 17.8561 21.6059 17.8659C20.5223 17.8268 19.4339 17.8268 18.3503 17.8659ZM22.0891 17.7536C22.0891 17.9733 22.0891 18.1978 22.0891 18.4174C22.5479 18.4174 23.0067 18.4174 23.4655 18.4174C23.5485 18.4223 23.6412 18.3881 23.6852 18.3149C23.7193 18.2124 23.6754 18.0953 23.6071 18.0172C23.4948 17.8854 23.324 17.8268 23.1531 17.8171C22.8017 17.7927 22.4454 17.7683 22.0891 17.7536ZM16.7347 17.8171C16.5444 17.8366 16.3394 17.9391 16.2613 18.1246C16.2369 18.188 16.2174 18.2661 16.2613 18.3247C16.3052 18.3881 16.3833 18.4125 16.4565 18.4125C16.9349 18.4174 17.4132 18.4125 17.8915 18.4174C17.8915 18.1929 17.8915 17.9733 17.8866 17.7487C17.5059 17.7683 17.1203 17.7878 16.7347 17.8171ZM18.1209 15.318C17.9452 15.3229 17.7841 15.4205 17.6865 15.5621C17.4327 15.9379 17.2082 16.3382 17.0813 16.7726C19.0239 16.7677 20.9616 16.7726 22.9042 16.7677C22.7676 16.3284 22.543 15.9282 22.2892 15.5474C22.1867 15.4059 22.0208 15.3132 21.8451 15.3132C20.6053 15.2595 19.3607 15.2595 18.1209 15.318ZM18.1356 15.1716C19.3704 15.1228 20.6102 15.1228 21.8402 15.1716C22.0305 15.1863 22.2062 15.2936 22.3185 15.4401C22.587 15.8159 22.8359 16.2161 22.9726 16.6603C23.0067 16.5724 22.9774 16.426 23.0848 16.3821C23.2215 16.3772 23.3581 16.3821 23.4948 16.3821C23.6266 16.3821 23.7584 16.4943 23.773 16.631C23.7633 16.6993 23.7096 16.7628 23.6364 16.7628C23.4606 16.7823 23.2898 16.7823 23.1141 16.8018C23.1287 16.8507 23.1678 16.8848 23.2068 16.919C23.4216 17.0898 23.6364 17.2606 23.8511 17.4315C23.9585 18.1636 23.9341 18.9104 23.8511 19.6474C23.8462 19.7353 23.773 19.8134 23.6852 19.8134C21.2203 19.9598 18.7506 19.9647 16.2857 19.8134C16.2027 19.8182 16.1344 19.7353 16.1295 19.6523C16.0173 18.9153 16.0905 18.1636 16.2076 17.4315C16.4419 17.2314 16.6713 17.0215 16.9105 16.8214C16.7299 16.7726 16.5444 16.797 16.3638 16.7677C16.3003 16.7579 16.2613 16.6945 16.2467 16.6408C16.2564 16.4992 16.3931 16.3918 16.5249 16.387C16.6615 16.387 16.7982 16.3821 16.9349 16.387C17.0178 16.4065 17.0032 16.509 17.0276 16.5724C17.1838 16.1722 17.4034 15.8013 17.6475 15.4547C17.7646 15.3034 17.9452 15.1911 18.1356 15.1716Z" fill="#EEB042"/>
<path fill-rule="evenodd" clip-rule="evenodd" d="M16.0024 19.2815C16.0366 19.423 16.0366 19.5695 16.061 19.711C16.0854 19.8135 16.183 19.8965 16.2904 19.8965C16.5833 19.9111 16.881 19.9307 17.1739 19.9404C17.1787 20.0722 17.1495 20.2382 16.9981 20.2626C16.7834 20.2723 16.5686 20.2626 16.3587 20.2674C16.2758 20.2626 16.183 20.2821 16.1098 20.2333C16.0415 20.1942 16.0073 20.1112 16.0073 20.038C16.0073 19.7842 16.0122 19.5353 16.0024 19.2815Z" fill="#EEB042"/>
<path fill-rule="evenodd" clip-rule="evenodd" d="M24.0075 18.9788C23.9635 19.3448 24.0026 19.7158 23.9831 20.0818C23.9733 20.1843 23.8757 20.2722 23.7683 20.2673C23.5096 20.2673 23.2509 20.2722 22.9922 20.2624C22.8409 20.238 22.8068 20.0623 22.8263 19.9354C23.1191 19.9257 23.412 19.9061 23.7 19.8915C23.822 19.8817 23.9196 19.7695 23.9245 19.6523C23.9489 19.4327 23.9538 19.1984 24.0075 18.9788Z" fill="#EEB042"/>
</g>
<defs>
<clipPath id="clip0_20_2176">
<rect width="81.521" height="26.9182" fill="white" transform="translate(12.7861 14.1321)"/>
</clipPath>
</defs>
</svg>
