<svg width="1440" height="131" viewBox="0 0 1440 131" fill="none" xmlns="http://www.w3.org/2000/svg">
<g opacity="0.2">
<path d="M45.4965 130.52C36.7365 130.52 29.1765 129.32 22.8165 126.92C16.4565 124.4 11.1765 120.98 6.97651 116.66C2.8965 112.22 -0.163496 107 -2.2035 101C-4.1235 94.8799 -5.0835 88.1599 -5.0835 80.8399V3.25989H22.9965V78.4999C22.9965 83.5399 23.5365 87.8599 24.6165 91.4599C25.8165 94.9399 27.3765 97.8199 29.2965 100.1C31.3365 102.26 33.7365 103.82 36.4965 104.78C39.3765 105.74 42.4965 106.22 45.8565 106.22C52.6965 106.22 58.2165 104.12 62.4165 99.9199C66.7365 95.7199 68.8965 88.5799 68.8965 78.4999V3.25989H96.9765V80.8399C96.9765 88.1599 95.9565 94.8799 93.9165 101C91.8765 107.12 88.7565 112.4 84.5565 116.84C80.3565 121.16 75.0165 124.52 68.5365 126.92C62.0565 129.32 54.3765 130.52 45.4965 130.52Z" fill="#D7D7D7"/>
<path d="M216.322 103.88V128H132.982V3.25989H161.062V103.88H216.322Z" fill="#D7D7D7"/>
<path d="M321.865 3.25989V27.1999H284.245V128H256.165V27.1999H218.545V3.25989H321.865Z" fill="#D7D7D7"/>
<path d="M385.452 1.81989C404.172 1.81989 418.512 5.17989 428.472 11.8999C438.432 18.4999 443.412 28.8199 443.412 42.8599C443.412 51.6199 441.372 58.7599 437.292 64.2799C433.332 69.6799 427.572 73.9399 420.012 77.0599C422.532 80.1799 425.172 83.7799 427.932 87.8599C430.692 91.8199 433.392 96.0199 436.032 100.46C438.792 104.78 441.432 109.34 443.952 114.14C446.472 118.82 448.812 123.44 450.972 128H419.472C417.192 123.92 414.852 119.78 412.452 115.58C410.172 111.38 407.772 107.3 405.252 103.34C402.852 99.3799 400.452 95.6599 398.052 92.1799C395.652 88.5799 393.252 85.3399 390.852 82.4599H376.992V128H348.912V5.05989C355.032 3.85989 361.332 3.01989 367.812 2.53989C374.412 2.05989 380.292 1.81989 385.452 1.81989ZM387.072 25.7599C385.032 25.7599 383.172 25.8199 381.492 25.9399C379.932 26.0599 378.432 26.1799 376.992 26.2999V60.1399H384.912C395.472 60.1399 403.032 58.8199 407.592 56.1799C412.152 53.5399 414.432 49.0399 414.432 42.6799C414.432 36.5599 412.092 32.2399 407.412 29.7199C402.852 27.0799 396.072 25.7599 387.072 25.7599Z" fill="#D7D7D7"/>
<path d="M567.115 128C565.795 123.68 564.295 119.24 562.615 114.68C561.055 110.12 559.495 105.56 557.935 101H509.335C507.775 105.56 506.155 110.12 504.475 114.68C502.915 119.24 501.475 123.68 500.155 128H470.995C475.675 114.56 480.115 102.14 484.315 90.7399C488.515 79.3399 492.595 68.5999 496.555 58.5199C500.635 48.4399 504.595 38.8999 508.435 29.8999C512.395 20.7799 516.475 11.8999 520.675 3.25989H547.495C551.575 11.8999 555.595 20.7799 559.555 29.8999C563.515 38.8999 567.475 48.4399 571.435 58.5199C575.515 68.5999 579.655 79.3399 583.855 90.7399C588.055 102.14 592.495 114.56 597.175 128H567.115ZM533.455 31.5199C532.855 33.3199 531.955 35.7799 530.755 38.8999C529.555 42.0199 528.175 45.6199 526.615 49.6999C525.055 53.7799 523.315 58.2799 521.395 63.1999C519.595 68.1199 517.735 73.2799 515.815 78.6799H551.275C549.355 73.2799 547.495 68.1199 545.695 63.1999C543.895 58.2799 542.155 53.7799 540.475 49.6999C538.915 45.6199 537.535 42.0199 536.335 38.8999C535.135 35.7799 534.175 33.3199 533.455 31.5199Z" fill="#D7D7D7"/>
<path d="M659.762 1.81989C678.362 1.81989 692.642 5.11989 702.602 11.7199C712.562 18.1999 717.542 28.8799 717.542 43.7599C717.542 58.7599 712.502 69.6199 702.422 76.3399C692.342 82.9399 677.942 86.2399 659.222 86.2399H650.402V128H622.322V5.05989C628.442 3.85989 634.922 3.01989 641.762 2.53989C648.602 2.05989 654.602 1.81989 659.762 1.81989ZM661.562 25.7599C659.522 25.7599 657.482 25.8199 655.442 25.9399C653.522 26.0599 651.842 26.1799 650.402 26.2999V62.2999H659.222C668.942 62.2999 676.262 60.9799 681.182 58.3399C686.102 55.6999 688.562 50.7799 688.562 43.5799C688.562 40.0999 687.902 37.2199 686.582 34.9399C685.382 32.6599 683.582 30.8599 681.182 29.5399C678.902 28.0999 676.082 27.1399 672.722 26.6599C669.362 26.0599 665.642 25.7599 661.562 25.7599Z" fill="#D7D7D7"/>
<path d="M818.377 128C817.057 123.68 815.557 119.24 813.877 114.68C812.317 110.12 810.757 105.56 809.197 101H760.597C759.037 105.56 757.417 110.12 755.737 114.68C754.177 119.24 752.737 123.68 751.417 128H722.257C726.937 114.56 731.377 102.14 735.577 90.7399C739.777 79.3399 743.857 68.5999 747.817 58.5199C751.897 48.4399 755.857 38.8999 759.697 29.8999C763.657 20.7799 767.737 11.8999 771.937 3.25989H798.757C802.837 11.8999 806.857 20.7799 810.817 29.8999C814.777 38.8999 818.737 48.4399 822.697 58.5199C826.777 68.5999 830.917 79.3399 835.117 90.7399C839.317 102.14 843.757 114.56 848.437 128H818.377ZM784.717 31.5199C784.117 33.3199 783.217 35.7799 782.017 38.8999C780.817 42.0199 779.437 45.6199 777.877 49.6999C776.317 53.7799 774.577 58.2799 772.657 63.1999C770.857 68.1199 768.997 73.2799 767.077 78.6799H802.537C800.617 73.2799 798.757 68.1199 796.957 63.1999C795.157 58.2799 793.417 53.7799 791.737 49.6999C790.177 45.6199 788.797 42.0199 787.597 38.8999C786.397 35.7799 785.437 33.3199 784.717 31.5199Z" fill="#D7D7D7"/>
<path d="M910.124 1.81989C928.844 1.81989 943.184 5.17989 953.144 11.8999C963.104 18.4999 968.084 28.8199 968.084 42.8599C968.084 51.6199 966.044 58.7599 961.964 64.2799C958.004 69.6799 952.244 73.9399 944.684 77.0599C947.204 80.1799 949.844 83.7799 952.604 87.8599C955.364 91.8199 958.064 96.0199 960.704 100.46C963.464 104.78 966.104 109.34 968.624 114.14C971.144 118.82 973.484 123.44 975.644 128H944.144C941.864 123.92 939.524 119.78 937.124 115.58C934.844 111.38 932.444 107.3 929.924 103.34C927.524 99.3799 925.124 95.6599 922.724 92.1799C920.324 88.5799 917.924 85.3399 915.524 82.4599H901.664V128H873.584V5.05989C879.704 3.85989 886.004 3.01989 892.484 2.53989C899.084 2.05989 904.964 1.81989 910.124 1.81989ZM911.744 25.7599C909.704 25.7599 907.844 25.8199 906.164 25.9399C904.604 26.0599 903.104 26.1799 901.664 26.2999V60.1399H909.584C920.144 60.1399 927.704 58.8199 932.264 56.1799C936.824 53.5399 939.104 49.0399 939.104 42.6799C939.104 36.5599 936.764 32.2399 932.084 29.7199C927.524 27.0799 920.744 25.7599 911.744 25.7599Z" fill="#D7D7D7"/>
<path d="M1076.26 128C1073.74 123.92 1070.74 119.54 1067.26 114.86C1063.9 110.06 1060.18 105.32 1056.1 100.64C1052.14 95.8399 1048 91.2799 1043.68 86.9599C1039.36 82.5199 1035.04 78.6199 1030.72 75.2599V128H1002.64V3.25989H1030.72V50.4199C1038.04 42.7399 1045.36 34.7599 1052.68 26.4799C1060.12 18.0799 1067.02 10.3399 1073.38 3.25989H1106.68C1098.16 13.3399 1089.58 23.0599 1080.94 32.4199C1072.42 41.7799 1063.42 51.1999 1053.94 60.6799C1063.9 68.9599 1073.5 78.7999 1082.74 90.1999C1092.1 101.6 1101.04 114.2 1109.56 128H1076.26Z" fill="#D7D7D7"/>
<path d="M1134.69 3.25989H1162.77V128H1134.69V3.25989Z" fill="#D7D7D7"/>
<path d="M1284.34 128C1276.3 113.72 1267.6 99.6199 1258.24 85.6999C1248.88 71.7799 1238.92 58.6399 1228.36 46.2799V128H1200.64V3.25989H1223.5C1227.46 7.21989 1231.84 12.0799 1236.64 17.8399C1241.44 23.5999 1246.3 29.7799 1251.22 36.3799C1256.26 42.8599 1261.24 49.6399 1266.16 56.7199C1271.08 63.6799 1275.7 70.3999 1280.02 76.8799V3.25989H1307.92V128H1284.34Z" fill="#D7D7D7"/>
<path d="M1406.54 24.8599C1393.46 24.8599 1383.98 28.5199 1378.1 35.8399C1372.34 43.0399 1369.46 52.9399 1369.46 65.5399C1369.46 71.6599 1370.18 77.2399 1371.62 82.2799C1373.06 87.1999 1375.22 91.4599 1378.1 95.0599C1380.98 98.6599 1384.58 101.48 1388.9 103.52C1393.22 105.44 1398.26 106.4 1404.02 106.4C1407.14 106.4 1409.78 106.34 1411.94 106.22C1414.22 106.1 1416.2 105.86 1417.88 105.5V62.1199H1445.96V123.86C1442.6 125.18 1437.2 126.56 1429.76 128C1422.32 129.56 1413.14 130.34 1402.22 130.34C1392.86 130.34 1384.34 128.9 1376.66 126.02C1369.1 123.14 1362.62 118.94 1357.22 113.42C1351.82 107.9 1347.62 101.12 1344.62 93.0799C1341.74 85.0399 1340.3 75.8599 1340.3 65.5399C1340.3 55.0999 1341.92 45.8599 1345.16 37.8199C1348.4 29.7799 1352.84 22.9999 1358.48 17.4799C1364.12 11.8399 1370.72 7.57989 1378.28 4.69988C1385.96 1.81988 1394.12 0.379883 1402.76 0.379883C1408.64 0.379883 1413.92 0.799885 1418.6 1.63989C1423.4 2.35989 1427.48 3.25989 1430.84 4.33989C1434.32 5.29989 1437.14 6.31989 1439.3 7.39989C1441.58 8.47989 1443.2 9.31989 1444.16 9.91989L1436.06 32.4199C1432.22 30.3799 1427.78 28.6399 1422.74 27.1999C1417.82 25.6399 1412.42 24.8599 1406.54 24.8599Z" fill="#D7D7D7"/>
</g>
</svg>
